<svg width="708" height="563" viewBox="0 0 708 563" fill="none" xmlns="http://www.w3.org/2000/svg">
<g clip-path="url(#clip0_54_4752)">
<path d="M587.233 495.228C586.492 495.228 585.772 494.868 585.369 494.19C584.734 493.152 585.03 491.796 586.068 491.16C653.006 449.334 692.965 377.272 692.965 298.429C692.965 250.204 678.29 204.458 650.528 166.107C649.808 165.132 650.041 163.734 651.015 163.034C651.989 162.335 653.387 162.547 654.086 163.522C682.398 202.615 697.369 249.272 697.369 298.429C697.369 378.818 656.627 452.279 588.397 494.91C588.037 495.143 587.635 495.249 587.233 495.249V495.228ZM343.454 494.381C343.052 494.381 342.649 494.275 342.268 494.042C274.886 451.283 234.652 378.14 234.652 298.408C234.652 170.768 338.435 66.9233 466 66.9233C467.44 66.9233 468.52 66.9233 469.473 66.9021C471.633 66.8809 473.179 66.8385 476.482 67.0504C477.689 67.1351 478.621 68.1734 478.557 69.3811C478.473 70.5889 477.435 71.5212 476.228 71.4576C473.094 71.2669 471.675 71.2881 469.536 71.3093C468.562 71.3093 467.461 71.3305 466 71.3305C340.871 71.3305 239.056 173.205 239.056 298.408C239.056 376.636 278.528 448.38 344.64 490.312C345.678 490.969 345.974 492.325 345.318 493.363C344.894 494.02 344.174 494.381 343.454 494.381Z" fill="#FDFDFD"/>
<path d="M469.303 563.879C379.093 563.879 325.793 555.467 310.907 538.855C305.824 533.177 306.396 527.88 306.65 525.612C307.963 513.514 317.704 483.447 318.128 482.176C318.339 481.519 318.848 481.011 319.483 480.778C320.118 480.544 320.838 480.629 321.41 480.989C321.452 481.032 326.598 484.295 330.134 485.545C342.988 490.058 459.944 528.303 609.997 485.312C610.569 485.142 611.162 485.227 611.67 485.503C612.178 485.778 612.559 486.265 612.729 486.816L624.206 527.053C624.312 527.329 625.604 531.27 622.004 536.461C613.279 548.962 579.737 563.858 469.325 563.858L469.303 563.879ZM321.473 486.202C319.038 493.936 312.071 516.48 311.034 526.1C310.822 528.07 310.42 531.715 314.189 535.931C323.824 546.674 358.574 559.493 469.303 559.493C580.033 559.493 611.183 543.707 618.129 534.3C620.67 530.867 619.992 528.515 619.971 528.409L609.065 490.185C458.715 532.583 341.57 494.253 328.652 489.719C326.28 488.893 323.422 487.346 321.452 486.202H321.473ZM791.01 -36.9217C768.14 -36.9217 716.322 -59.657 669.841 -86.3122C612.157 -119.387 555.511 -162.633 564.087 -177.614C572.664 -192.594 638.606 -165.536 696.268 -132.461C713.04 -122.841 728.308 -113.179 744.317 -102.076C745.312 -101.377 745.566 -100 744.867 -99.0041C744.168 -98.0082 742.792 -97.754 741.797 -98.4532C725.894 -109.492 710.732 -119.091 694.066 -128.647C619.95 -171.151 572.431 -183.292 567.92 -175.431C563.41 -167.57 597.906 -132.673 672.043 -90.1473C746.18 -47.6219 793.72 -35.5021 798.21 -43.363C800.603 -47.5372 792.344 -60.8224 761.194 -84.5535C760.22 -85.2951 760.029 -86.6724 760.771 -87.647C761.512 -88.6217 762.888 -88.8124 763.862 -88.0708C793.89 -65.1872 806.744 -49.4018 802.021 -41.1806C800.348 -38.2778 796.516 -36.9429 790.989 -36.9429L791.01 -36.9217Z" fill="#FDFDFD"/>
<path d="M791.963 208.272C772.481 208.272 743.025 199.606 723.289 192.952C675.241 176.743 615.778 149.707 560.149 118.793C452.066 58.7019 367.426 -7.1732 358.934 -37.833C357.79 -41.9648 358.023 -45.4821 359.612 -48.2578C368.336 -63.4287 410.921 -56.4789 472.649 -31.54C443.448 -54.1905 424.601 -73.4933 421.276 -85.5072C420.408 -88.6431 420.577 -91.3128 421.806 -93.4529C432.796 -112.544 525.462 -80.3372 628.357 -21.6238C628.886 -21.3271 629.077 -20.6491 628.759 -20.1194C628.463 -19.5897 627.785 -19.4202 627.256 -19.7168C577.746 -47.9611 528.872 -71.0142 489.654 -84.6173C452.892 -97.3728 428.243 -100.254 423.711 -92.3511C422.801 -90.7619 422.695 -88.6643 423.394 -86.1005C426.867 -73.5569 447.873 -52.7709 480.188 -28.4465C502.635 -19.0812 527.389 -7.49104 553.859 6.17555C554.41 6.451 554.622 7.12904 554.325 7.65875C554.05 8.20966 553.372 8.40036 552.843 8.12491C528.829 -4.27037 507.039 -14.5892 487.515 -23.0222C516.695 -1.68539 553.902 21.9822 595.153 44.9718C628.018 63.2786 663.551 79.9964 696.925 93.0061C681.847 82.9628 665.478 72.5592 647.987 61.9014C647.458 61.5835 647.309 60.9055 647.627 60.397C647.945 59.8673 648.622 59.719 649.13 60.0368C669.671 72.5592 688.793 84.8062 706.179 96.5658C716.153 100.295 725.894 103.643 735.253 106.609C775.678 119.322 803.652 122.31 808.205 114.364C813.817 104.617 790.481 75.462 647.479 -7.97838C646.949 -8.27502 646.78 -8.95305 647.076 -9.48276C647.373 -10.0125 648.05 -10.182 648.58 -9.88533C766.276 58.7867 819.111 99.7865 810.111 115.466C803.631 126.738 764.265 119.873 713.675 101.693C736.884 117.648 756.747 132.65 772.544 146.168C803.673 172.802 816.506 191.469 810.661 201.64C807.887 206.449 801.005 208.314 791.963 208.314V208.272ZM381.084 -53.9787C370.56 -53.9787 364.037 -51.542 361.517 -47.1771C360.226 -44.9312 360.056 -41.986 361.052 -38.4475C369.416 -8.2962 453.612 57.0068 561.229 116.843C676.384 180.854 796.664 221.515 808.777 200.474C817.099 185.981 776.801 147.037 705.141 98.494C670.455 85.5054 631.279 67.6011 594.094 46.8787C549.391 21.9822 509.432 -3.78305 479.172 -26.5819C433.05 -45.8211 400.354 -53.9787 381.084 -53.9787ZM797.447 49.8239C785.695 49.8239 767.123 43.7216 751.241 37.4922C719.414 25.0121 679.37 4.67117 638.479 -19.8016C598.117 -43.9565 561.271 -70.0184 534.738 -93.2198C519.406 -106.611 494.609 -130.575 500.602 -140.597C505.049 -148.035 524.171 -144.856 557.459 -131.168C588.44 -118.413 628.463 -97.6694 670.116 -72.7517C673.674 -70.6328 677.168 -68.4928 680.64 -66.3739C681.17 -66.0561 681.318 -65.3781 681 -64.8696C680.683 -64.361 680.005 -64.1915 679.497 -64.5094C676.045 -66.6282 672.53 -68.7471 668.994 -70.8659C627.425 -95.7412 587.508 -116.421 556.612 -129.134C525.865 -141.784 506.129 -145.555 502.486 -139.474C498.759 -133.245 511.359 -116.591 536.177 -94.8937C562.626 -71.777 599.346 -45.7999 639.601 -21.7085C680.408 2.70064 720.324 22.9781 752.046 35.4157C782.349 47.3025 802.614 50.735 806.278 44.6327C812.122 34.8436 776.017 -2.74481 697.581 -53.1311C697.073 -53.4701 696.925 -54.1482 697.242 -54.6567C697.581 -55.1652 698.259 -55.3135 698.767 -54.9957C757.785 -17.0894 817.205 30.6271 808.163 45.7557C806.447 48.6374 802.593 49.8027 797.447 49.8027V49.8239Z" fill="#FDFDFD"/>
<path d="M790.925 304.383C739.976 304.383 627.383 258.425 521.989 202.233C396.924 135.553 297.883 58.4054 286.512 18.7829C284.733 12.5747 285.072 7.27752 287.507 3.01863C300.594 -19.7378 355.334 -12.1947 441.669 24.2283C442.791 24.6945 443.32 25.987 442.833 27.11C442.368 28.233 441.055 28.7627 439.953 28.2753C358.383 -6.15601 302.817 -14.7797 291.34 5.20105C289.519 8.37932 289.307 12.5323 290.747 17.554C301.822 56.1383 399.931 132.163 524.065 198.334C671.302 276.838 798.21 318.219 812.948 292.539C817.056 285.398 820.466 255.268 691.842 167.378C690.847 166.7 690.572 165.323 691.271 164.306C691.969 163.289 693.325 163.034 694.341 163.734C817.861 248.149 824.066 282.05 816.781 294.721C812.969 301.332 803.97 304.341 790.925 304.362V304.383Z" fill="#FDFDFD"/>
<path d="M566.456 -167.865L289.098 19.6777L290.331 21.5035L567.689 -166.039L566.456 -167.865Z" fill="#FDFDFD"/>
<path d="M720.854 288.852C720.854 288.852 720.79 288.852 720.769 288.852C720.155 288.809 719.71 288.28 719.753 287.665L743.978 -51.1182C744.02 -51.7326 744.55 -52.1988 745.164 -52.1352C745.778 -52.0928 746.223 -51.5631 746.18 -50.9487L721.955 287.835C721.912 288.407 721.425 288.852 720.854 288.852ZM599.663 238.148C599.557 238.148 599.451 238.148 599.324 238.105C598.753 237.915 598.414 237.3 598.604 236.728L696.289 -74.1289C696.48 -74.701 697.094 -75.04 697.666 -74.8493C698.238 -74.6586 698.576 -74.0441 698.386 -73.472L600.701 237.385C600.553 237.851 600.129 238.148 599.642 238.148H599.663ZM466 167.59C465.788 167.59 465.576 167.526 465.386 167.399C464.878 167.06 464.751 166.361 465.089 165.874L647.225 -100.89C647.563 -101.399 648.262 -101.504 648.749 -101.187C649.257 -100.848 649.384 -100.148 649.046 -99.6611L466.911 167.102C466.699 167.42 466.36 167.59 466 167.59ZM352.158 89.7008C351.84 89.7008 351.543 89.5737 351.332 89.3194C350.929 88.8533 350.972 88.154 351.438 87.7726L604.089 -131.232C604.555 -131.635 605.254 -131.571 605.635 -131.126C606.037 -130.66 605.995 -129.961 605.529 -129.579L352.877 89.4254C352.666 89.616 352.412 89.7008 352.158 89.7008Z" fill="#FDFDFD"/>
<path d="M677.549 212.128C676.638 212.128 675.791 211.556 675.474 210.666C674.394 207.657 665.288 180.981 677.422 173.099C678.226 172.569 679.179 171.997 680.217 171.383C686.146 167.865 694.236 163.034 694.405 154.58C694.617 141.761 677.252 124.026 642.735 101.842C642.248 101.524 641.91 101.037 641.782 100.528L625.096 130.828C624.503 131.887 623.169 132.29 622.11 131.697C621.051 131.103 620.649 129.768 621.242 128.709L644.302 86.798L640.702 83.196C640.004 82.4967 639.855 81.4373 640.343 80.5686C640.491 80.2931 655.928 51.7098 637.568 27.1099C637.06 26.4319 636.997 25.5208 637.378 24.758L647.246 6.06973C646.695 4.41703 644.938 0.242887 640.702 -2.49043C639.686 -3.14728 639.39 -4.52454 640.046 -5.54159C640.702 -6.55864 642.079 -6.85527 643.095 -6.19843C650.02 -1.70646 651.693 5.51883 651.756 5.83666C651.862 6.34518 651.799 6.8749 651.545 7.34104L641.91 25.6056C658.3 48.8494 647.966 74.7629 644.938 81.2042L648.601 84.8699C649.3 85.5691 649.448 86.6285 648.961 87.4972L643.222 97.9432C643.837 97.7525 644.535 97.7948 645.107 98.1762C681.488 121.568 699.042 140.045 698.788 154.707C698.598 165.641 688.878 171.404 682.462 175.239C681.488 175.811 680.577 176.362 679.815 176.849C671.979 181.935 677.019 201.958 679.624 209.225C680.026 210.37 679.433 211.641 678.29 212.043C678.036 212.128 677.803 212.171 677.549 212.171V212.128ZM414.267 77.2208C413.378 77.2208 412.552 76.6911 412.213 75.8012C411.768 74.657 412.34 73.3857 413.483 72.9619C420.217 70.3769 438.387 61.6896 441.436 52.4938C442.241 50.0783 441.923 47.7899 440.483 45.5016C436.375 39.0391 435.655 28.2965 442.431 21.1771C449.695 13.5069 470.108 5.32812 525.251 36.1362L533.171 22.4696C533.594 21.728 534.399 21.3255 535.267 21.3679L538.465 21.6433L546.914 10.4769C547.528 9.73533 560.466 -5.35089 585.708 -4.4186L598.245 -23.573C598.541 -24.018 598.964 -24.3358 599.473 -24.4841C599.833 -24.5689 608.197 -26.8361 623.126 -19.187C624.206 -18.6361 624.63 -17.3012 624.079 -16.2206C623.529 -15.14 622.195 -14.7162 621.115 -15.2671C610.336 -20.7973 603.56 -20.6278 601.4 -20.3736L588.694 -0.964857C588.271 -0.308012 587.529 0.0733833 586.725 0.0310059C562.732 -1.36744 550.471 13.0619 550.344 13.2103L541.217 25.2453C540.773 25.8598 540.053 26.1776 539.269 26.1141L536.262 25.8598L513.096 65.9061C513.434 68.6394 513.964 71.3728 514.324 72.072C515.065 72.9407 515.023 74.2544 514.218 75.0596C513.413 75.8647 511.973 75.9283 511.105 75.0596C510.004 73.9578 509.178 70.8007 508.627 65.6519C508.585 65.1857 508.67 64.7196 508.903 64.317L523.027 39.929C468.562 9.52345 450.753 18.7617 445.608 24.1859C440.377 29.6949 440.97 38.0644 444.189 43.1073C446.37 46.5186 446.836 50.1419 445.608 53.8498C441.288 66.9232 416.131 76.6487 415.051 77.0513C414.796 77.1572 414.521 77.1996 414.267 77.1996V77.2208Z" fill="#FDFDFD"/>
<path d="M477.964 595.873L476.397 594.305L574.824 495.842L576.391 497.41L477.964 595.873ZM529.613 584.982L528.046 583.414L613.195 498.215L614.762 499.783L529.613 584.982ZM530.947 570.066L529.38 568.498L609.976 487.854L611.543 489.422L530.947 570.066ZM470.637 563.921L469.07 562.353L527.643 503.746L529.21 505.313L470.637 563.921ZM484.529 563.116L482.962 561.548L543.377 501.097L544.944 502.665L484.529 563.116ZM458.588 562.883L457.021 561.315L514.408 503.894L515.975 505.462L458.588 562.883ZM498.039 562.692L496.472 561.124L559.64 497.919L561.207 499.487L498.039 562.692ZM526.902 560.51L525.335 558.942L591.976 492.261L593.543 493.829L526.902 560.51ZM571.372 556.78L569.805 555.212L615.947 509.043L617.514 510.611L571.372 556.78ZM589.181 552.564L587.614 550.996L619.145 519.446L620.712 521.014L589.181 552.564ZM656.267 375.258L654.7 373.69L690.868 337.5L692.435 339.068L656.267 375.258ZM670.772 375.068L669.205 373.5L687.925 354.769L689.492 356.337L670.772 375.068ZM647.817 355.044L646.25 353.476L692.711 306.989L694.278 308.557L647.817 355.044ZM619.357 354.854L617.79 353.286L691.779 279.253L693.346 280.821L619.357 354.854ZM663.064 354.112L661.497 352.544L692.901 321.122L694.468 322.69L663.064 354.112ZM653.154 335.381L651.587 333.814L693.812 291.564L695.379 293.132L653.154 335.381ZM628.357 331.525L626.79 329.957L681.508 275.206L683.076 276.774L628.357 331.525ZM634.794 310.76L633.227 309.193L672.149 270.248L673.716 271.816L634.794 310.76ZM600.277 302.306L598.71 300.738L641.486 257.937L643.053 259.505L600.277 302.306ZM616.244 300.653L614.677 299.086L651.205 262.535L652.773 264.103L616.244 300.653ZM574.569 299.361L573.002 297.793L621.665 249.102L623.232 250.67L574.569 299.361ZM640.109 291.097L638.542 289.529L661.666 266.37L663.234 267.938L640.109 291.097ZM603.75 284.487L602.183 282.919L630.834 254.251L632.401 255.819L603.75 284.487ZM500.009 273.659L498.442 272.091L553.52 216.98L555.087 218.548L500.009 273.659ZM587.783 271.816L586.216 270.248L611.183 245.267L612.75 246.835L587.783 271.816ZM565.739 265.205L564.172 263.637L592.442 235.35L594.009 236.918L565.739 265.205ZM542.805 259.505L541.238 257.937L572.452 226.706L574.019 228.273L542.805 259.505ZM561.716 254.907L560.149 253.34L582.278 231.197L583.845 232.765L561.716 254.907ZM590.896 254.357L589.329 252.789L600.891 241.22L602.458 242.788L590.896 254.357ZM551.805 236.177L550.238 234.609L563.092 221.747L564.659 223.315L551.805 236.177ZM525.166 234.143L523.599 232.575L543.885 212.276L545.452 213.844L525.166 234.143ZM525.356 219.629L523.789 218.061L534.441 207.403L536.008 208.971L525.356 219.629ZM505.896 210.454L504.329 208.907L516.039 197.19L517.606 198.737L505.896 210.454ZM520.761 209.903L519.194 208.335L525.25 202.275L526.817 203.843L520.761 209.903ZM478.176 209.522L476.609 207.954L496.62 187.931L498.187 189.498L478.176 209.522ZM492.851 209.161L491.284 207.615L506.806 192.083L508.373 193.63L492.851 209.161ZM484.042 189.329L482.475 187.761L489.442 180.79L491.009 182.358L484.042 189.329ZM503.587 84.7848L502.02 83.238L511.253 73.9998L512.82 75.5466L503.587 84.7848ZM493.169 78.407L491.602 76.8391L517.945 50.4806L519.512 52.0485L493.169 78.407ZM483.322 71.436L481.755 69.8681L517.415 34.1866L518.982 35.7545L483.322 71.436ZM472.437 65.5244L470.87 63.9776L506.7 28.1267L508.267 29.6946L472.437 65.5456V65.5244ZM462.654 58.511L461.087 56.9431L494.905 23.105L496.472 24.6729L462.654 58.511ZM452.871 51.4764L451.304 49.9085L482.454 18.7401L484.021 20.3081L452.871 51.4764ZM442.283 44.4418L440.716 42.8739L468.266 15.3076L469.833 16.8756L442.283 44.4418Z" fill="#FDFDFD"/>
<path d="M790.269 303.175L788.744 302.836C786.52 479.04 642.608 621.702 466 621.702C289.392 621.702 143.214 476.815 143.214 298.726C143.214 184.689 202.591 84.2554 292.039 26.771L290.641 25.0547C200.706 82.9629 141.011 183.99 141.011 298.726C141.011 478.023 286.808 623.906 466 623.906C645.192 623.906 790.989 478.023 790.989 298.726C790.989 294.658 790.904 290.589 790.734 286.563L790.247 303.196L790.269 303.175Z" fill="#FDFDFD"/>
<path d="M808.332 114.237L807.929 116.101L807.125 116.673C836.178 170.958 852.674 232.935 852.674 298.704C852.674 512.051 679.2 685.628 466 685.628C252.799 685.628 79.3254 512.072 79.3254 298.725C79.3254 100.104 229.696 -64.0224 422.504 -85.7195L423.14 -88.0078C228.786 -66.5862 77.123 98.6631 77.123 298.725C77.123 513.28 251.571 687.852 466 687.852C680.429 687.852 854.898 513.301 854.898 298.725C854.898 232.024 838.021 169.179 808.332 114.258" fill="#FDFDFD"/>
<path d="M794.377 -31.7942V-28.6583C878.043 55.333 929.819 171.086 929.819 298.726C929.819 554.619 721.764 762.797 466.021 762.797C210.278 762.797 2.20231 554.619 2.20231 298.726C2.20231 42.8318 210.257 -165.367 466 -165.367C495.519 -165.367 524.382 -162.549 552.377 -157.251L554.918 -159.01C526.119 -164.604 496.388 -167.57 465.979 -167.57C209.05 -167.57 0 41.6028 0 298.726C0 555.848 209.05 765 466 765C722.95 765 932 555.827 932 298.726C932 169.666 879.314 52.7056 794.377 -31.7942Z" fill="#FDFDFD"/>
<path d="M678.629 177.146C678.417 177.146 678.184 177.103 677.972 177.04C592.972 150.533 444.4 49.7391 442.897 48.722C441.88 48.044 441.626 46.6668 442.304 45.6497C442.982 44.6539 444.358 44.3784 445.375 45.0564C446.857 46.0735 594.899 146.507 679.285 172.802C680.45 173.162 681.085 174.391 680.725 175.557C680.429 176.51 679.56 177.103 678.629 177.103V177.146Z" fill="#FDFDFD"/>
</g>
<defs>
<clipPath id="clip0_54_4752">
<rect width="932" height="947" fill="white" transform="translate(0 -182)"/>
</clipPath>
</defs>
</svg>
