<svg width="112" height="32" viewBox="0 0 112 32" fill="none" xmlns="http://www.w3.org/2000/svg">
<g clip-path="url(#clip0_54_657)">
<path d="M23.9931 17.6043H23.9071C23.2065 18.8213 21.5471 19.731 19.5682 19.731C17.3312 19.731 14.332 18.6492 14.332 15.3914C14.332 11.2239 19.5682 10.6461 23.9317 10.6461V10.3019C23.9317 8.58083 22.4813 7.74487 20.7359 7.74487C19.2486 7.74487 17.8228 8.4456 16.9255 9.34303L15.1187 7.21625C16.692 5.76562 18.9045 5.00342 21.0309 5.00342C26.0335 5.00342 27.2627 8.08909 27.2627 10.8797V19.3868H24.0054V17.6166L23.9931 17.6043ZM23.9317 13.0065H23.145C20.9326 13.0065 17.8228 13.2647 17.8228 15.33C17.8228 16.67 19.0765 17.0756 20.2688 17.0756C22.6534 17.0756 23.9317 15.7111 23.9317 13.4982V13.0065Z" fill="black"/>
<path d="M50.8501 17.6043H50.764C50.0634 18.8213 48.4041 19.731 46.4251 19.731C44.1881 19.731 41.189 18.6492 41.189 15.3914C41.189 11.2239 46.4251 10.6461 50.7886 10.6461V10.3019C50.7886 8.58083 49.3259 7.74487 47.5805 7.74487C46.0933 7.74487 44.6675 8.4456 43.7702 9.34303L41.9633 7.21625C43.5366 5.76562 45.7491 5.00342 47.8755 5.00342C52.8782 5.00342 54.1073 8.08909 54.1073 10.8797V19.3868H50.8501V17.6166V17.6043ZM50.7886 13.0065H50.002C47.7895 13.0065 44.6797 13.2647 44.6797 15.33C44.6797 16.67 45.9335 17.0756 47.1258 17.0756C49.5103 17.0756 50.8009 15.7111 50.8009 13.4982V13.0065H50.7886Z" fill="black"/>
<path d="M70.1846 19.387H66.8659V17.1495H66.8045C66.1899 18.551 64.5305 19.8049 62.4656 19.8049C58.8273 19.8049 57.3154 17.0143 57.3154 14.1622V5.43384H60.8062V13.1787C60.8062 14.8384 61.1872 16.9037 63.4243 16.9037C65.6613 16.9037 66.6815 14.9859 66.6815 13.1173V5.43384H70.1723V19.4116L70.1846 19.387Z" fill="black"/>
<path d="M96.3774 5.00342C100.593 5.00342 103.974 7.94157 103.974 12.3426C103.974 16.7437 100.593 19.7925 96.3774 19.7925C92.1614 19.7925 88.7812 16.7314 88.7812 12.3426C88.7812 7.95386 92.1614 5.00342 96.3774 5.00342ZM96.3774 16.8789C99.143 16.8789 100.421 14.5186 100.421 12.3426C100.421 10.1667 99.143 7.85551 96.3774 7.85551C93.6118 7.85551 92.3335 10.1544 92.3335 12.3426C92.3335 14.5309 93.6118 16.8789 96.3774 16.8789Z" fill="black"/>
<path d="M32.7198 19.3869H36.1491V8.19981H40.1684V5.40918H28.9463V8.19981H32.7198V19.3869Z" fill="black"/>
<path d="M87.7368 19.387L83.6929 13.2894C85.4875 12.6133 86.7412 11.4331 86.7412 9.40465C86.7412 6.14687 83.6192 5.01587 81.0134 5.01587C76.7605 5.01587 73.8105 6.34357 73.8105 6.34357V19.387H77.2399V14.1499C78.2232 14.1499 79.268 14.1131 80.2636 14.0147L83.5946 19.387H87.7245H87.7368ZM77.2522 11.7896V8.16301C77.6332 8.02778 78.9484 7.6098 80.8044 7.6098C82.1688 7.6098 83.2504 8.11383 83.2504 9.45383C83.2504 11.5191 80.1407 11.7773 77.9282 11.7773H77.2645L77.2522 11.7896Z" fill="black"/>
<path d="M7.30114 11.728L13.3608 5.40914H8.87445L3.57682 11.2854H3.49078V0H0V19.3869H3.49078V12.2197H3.57682L9.10799 19.3869H13.7419L7.30114 11.728Z" fill="black"/>
<path d="M0.0493164 25.1893H1.2293V30.7705H4.04405V31.8155H0.0493164V25.177V25.1893Z" fill="#5DA6A9"/>
<path d="M11.542 29.3936C11.542 30.9917 10.3866 31.9998 8.87477 31.9998C7.36292 31.9998 6.20752 30.9917 6.20752 29.3936V25.1892H7.3875V29.3444C7.3875 30.1189 7.74395 30.9426 8.87477 30.9426C10.0056 30.9426 10.362 30.1189 10.362 29.3444V25.1892H11.542V29.3936Z" fill="#5DA6A9"/>
<path d="M14.5899 25.1892H16.4337L18.1545 29.9099H18.179L19.8876 25.1892H21.7436V31.8277H20.5759V26.4923H20.5513L18.5355 31.8277H17.712L15.7207 26.4923H15.6962V31.8277H14.5776V25.1892H14.5899Z" fill="#5DA6A9"/>
<path d="M24.8535 25.1892H26.0335V31.8277H24.8535V25.1892Z" fill="#5DA6A9"/>
<path d="M29.1431 25.1892H30.7041L33.7892 30.1558H33.8138V25.1892H34.9938V31.8277H33.4943L30.3476 26.7013H30.323V31.8277H29.1431V25.1892Z" fill="#5DA6A9"/>
<path d="M40.1688 25.1892H41.189L44.0529 31.8277H42.7008L42.0862 30.3033H39.21L38.6078 31.8277H37.2803L40.1688 25.1892ZM41.6683 29.2952L40.6481 26.5907L39.6034 29.2952H41.6683Z" fill="#5DA6A9"/>
<path d="M46.29 25.1892H48.6008C49.8423 25.1892 51.0468 25.681 51.0468 27.0947C51.0468 28.0536 50.4569 28.6806 49.5227 28.8896L51.2927 31.8277H49.8669L48.3304 29.0125H47.47V31.8277H46.29V25.1892ZM48.4288 28.0536C49.0925 28.0536 49.8546 27.8938 49.8546 27.0824C49.8546 26.3571 49.1417 26.185 48.5394 26.185H47.47V28.0536H48.441H48.4288Z" fill="#5DA6A9"/>
<path d="M53.8247 25.1892H55.0047V31.8277H53.8247V25.1892Z" fill="#5DA6A9"/>
<path d="M60.1546 25.1892H61.1748L64.0387 31.8277H62.6867L62.0721 30.3033H59.1959L58.5936 31.8277H57.2661L60.1546 25.1892ZM61.6542 29.2952L60.634 26.5907L59.5892 29.2952H61.6542Z" fill="#5DA6A9"/>
<path d="M69.6316 26.5785C69.3735 26.2465 68.8818 26.0007 68.4147 26.0007C67.8739 26.0007 67.247 26.2588 67.247 26.9104C67.247 27.5251 67.7633 27.6972 68.5131 27.9307C69.3612 28.1889 70.4551 28.57 70.4551 29.8731C70.4551 31.2992 69.3366 31.9876 68.0337 31.9876C67.1733 31.9876 66.276 31.6557 65.7598 31.041L66.6079 30.2542C66.9397 30.7091 67.5297 30.9795 68.0583 30.9795C68.6114 30.9795 69.2628 30.7091 69.2628 29.996C69.2628 29.283 68.5745 29.1109 67.7387 28.8405C66.9275 28.5823 66.0671 28.1889 66.0671 26.9596C66.0671 25.6073 67.2962 25.0049 68.4885 25.0049C69.1522 25.0049 69.9143 25.2385 70.4182 25.7179L69.6439 26.5662L69.6316 26.5785Z" fill="#5DA6A9"/>
<path d="M108.988 5.72876C110.648 5.72876 112 7.05646 112 8.72838C112 10.4003 110.66 11.6911 108.988 11.6911C107.317 11.6911 105.977 10.388 105.977 8.72838C105.977 7.06875 107.317 5.72876 108.988 5.72876ZM108.988 11.2608C110.39 11.2608 111.521 10.1175 111.521 8.72838C111.521 7.33921 110.39 6.19591 108.988 6.19591C107.587 6.19591 106.456 7.32692 106.456 8.72838C106.456 10.1298 107.587 11.2608 108.988 11.2608ZM107.821 7.03187H109.013C109.64 7.03187 110.267 7.29004 110.267 8.01535C110.267 8.50709 109.959 8.81443 109.492 8.92507L110.402 10.4003H109.664L108.878 8.98654H108.448V10.4003H107.845V7.01958L107.821 7.03187ZM108.915 8.50709C109.259 8.50709 109.652 8.40875 109.652 8.00306C109.652 7.63425 109.296 7.53591 108.976 7.53591H108.423V8.4948H108.915V8.50709Z" fill="black"/>
</g>
<defs>
<clipPath id="clip0_54_657">
<rect width="112" height="32" fill="white"/>
</clipPath>
</defs>
</svg>
