<svg width="24" height="25" viewBox="0 0 24 25" fill="none" xmlns="http://www.w3.org/2000/svg">
<path d="M21.9999 17.7199V20.7199C22.0011 20.9984 21.944 21.2741 21.8324 21.5292C21.7209 21.7844 21.5572 22.0135 21.352 22.2018C21.1468 22.39 20.9045 22.5334 20.6407 22.6226C20.3769 22.7118 20.0973 22.745 19.8199 22.7199C16.7428 22.3855 13.7869 21.334 11.1899 19.6499C8.77376 18.1146 6.72527 16.0661 5.18993 13.6499C3.49991 11.0411 2.44818 8.0709 2.11993 4.9799C2.09494 4.70337 2.12781 4.42466 2.21643 4.16153C2.30506 3.89839 2.4475 3.65659 2.6347 3.45152C2.82189 3.24645 3.04974 3.08261 3.30372 2.97042C3.55771 2.85824 3.83227 2.80016 4.10993 2.7999H7.10993C7.59524 2.79513 8.06572 2.96698 8.43369 3.28343C8.80166 3.59989 9.04201 4.03935 9.10993 4.5199C9.23656 5.47997 9.47138 6.42263 9.80993 7.3299C9.94448 7.68783 9.9736 8.07682 9.89384 8.45078C9.81408 8.82475 9.6288 9.16801 9.35993 9.4399L8.08993 10.7099C9.51349 13.2134 11.5864 15.2863 14.0899 16.7099L15.3599 15.4399C15.6318 15.171 15.9751 14.9858 16.3491 14.906C16.723 14.8262 17.112 14.8554 17.4699 14.9899C18.3772 15.3285 19.3199 15.5633 20.2799 15.6899C20.7657 15.7584 21.2093 16.0031 21.5265 16.3774C21.8436 16.7517 22.0121 17.2295 21.9999 17.7199Z" stroke="black" stroke-width="2" stroke-linecap="round" stroke-linejoin="round"/>
</svg>
