<svg width="932" height="947" viewBox="0 0 932 947" fill="none" xmlns="http://www.w3.org/2000/svg">
<g clip-path="url(#clip0_434_10455)">
<path d="M587.232 677.227C586.491 677.227 585.771 676.867 585.369 676.189C584.734 675.151 585.03 673.795 586.068 673.159C653.005 631.333 692.964 559.271 692.964 480.428C692.964 432.203 678.289 386.457 650.528 348.106C649.808 347.131 650.041 345.733 651.015 345.033C651.989 344.334 653.386 344.546 654.085 345.521C682.398 384.614 697.369 431.271 697.369 480.428C697.369 560.817 656.626 634.278 588.397 676.909C588.037 677.142 587.635 677.248 587.232 677.248V677.227ZM343.454 676.38C343.052 676.38 342.649 676.274 342.268 676.041C274.886 633.282 234.651 560.139 234.651 480.407C234.651 352.767 338.435 248.922 466 248.922C467.44 248.922 468.52 248.922 469.473 248.901C471.632 248.88 473.178 248.838 476.482 249.049C477.689 249.134 478.621 250.172 478.557 251.38C478.472 252.588 477.435 253.52 476.228 253.457C473.094 253.266 471.675 253.287 469.536 253.308C468.562 253.308 467.461 253.329 466 253.329C340.87 253.329 239.056 355.204 239.056 480.407C239.056 558.635 278.528 630.379 344.64 672.311C345.677 672.968 345.974 674.324 345.317 675.363C344.894 676.019 344.174 676.38 343.454 676.38Z" fill="#FDFDFD"/>
<path d="M469.303 745.878C379.093 745.878 325.793 737.466 310.906 720.854C305.824 715.176 306.396 709.879 306.65 707.611C307.963 695.513 317.704 665.446 318.127 664.175C318.339 663.518 318.847 663.01 319.483 662.777C320.118 662.543 320.838 662.628 321.41 662.988C321.452 663.031 326.598 666.294 330.134 667.544C342.988 672.057 459.943 710.302 609.997 667.311C610.569 667.141 611.162 667.226 611.67 667.502C612.178 667.777 612.559 668.264 612.729 668.815L624.206 709.052C624.312 709.328 625.604 713.269 622.004 718.46C613.279 730.961 579.736 745.857 469.324 745.857L469.303 745.878ZM321.473 668.201C319.038 675.935 312.071 698.479 311.033 708.099C310.822 710.069 310.419 713.714 314.189 717.93C323.824 728.673 358.574 741.492 469.303 741.492C580.033 741.492 611.183 725.706 618.128 716.299C620.67 712.866 619.992 710.514 619.971 710.408L609.065 672.184C458.715 714.582 341.569 676.252 328.652 671.718C326.28 670.892 323.421 669.345 321.452 668.201H321.473ZM791.01 145.077C768.14 145.077 716.322 122.342 669.84 95.6869C612.157 62.6116 555.511 19.3658 564.087 4.3855C572.663 -10.5948 638.606 16.463 696.268 49.5382C713.039 59.1578 728.307 68.8198 744.316 79.9226C745.312 80.6218 745.566 81.9991 744.867 82.9949C744.168 83.9908 742.792 84.2451 741.796 83.5458C725.893 72.5066 710.731 62.9082 694.066 53.3522C619.95 10.848 572.431 -1.29302 567.92 6.56792C563.41 14.4289 597.905 49.3264 672.043 91.8517C746.18 134.377 793.72 146.497 798.209 138.636C800.602 134.462 792.344 121.177 761.194 97.4455C760.22 96.7039 760.029 95.3267 760.77 94.352C761.511 93.3773 762.888 93.1866 763.862 93.9282C793.89 116.812 806.743 132.597 802.021 140.818C800.348 143.721 796.515 145.056 790.988 145.056L791.01 145.077Z" fill="#FDFDFD"/>
<path d="M791.963 390.272C772.481 390.272 743.025 381.606 723.289 374.952C675.24 358.743 615.778 331.707 560.148 300.793C452.066 240.702 367.425 174.827 358.934 144.167C357.79 140.035 358.023 136.518 359.611 133.742C368.336 118.571 410.921 125.521 472.649 150.46C443.447 127.809 424.601 108.507 421.276 96.4928C420.408 93.3569 420.577 90.6872 421.805 88.5471C432.796 69.4563 525.462 101.663 628.357 160.376C628.886 160.673 629.077 161.351 628.759 161.881C628.462 162.41 627.785 162.58 627.255 162.283C577.746 134.039 528.871 110.986 489.653 97.3827C452.892 84.6272 428.243 81.7456 423.711 89.6489C422.801 91.2381 422.695 93.3357 423.394 95.8995C426.866 108.443 447.873 129.229 480.188 153.554C502.634 162.919 527.389 174.509 553.859 188.176C554.41 188.451 554.622 189.129 554.325 189.659C554.05 190.21 553.372 190.4 552.843 190.125C528.829 177.73 507.039 167.411 487.515 158.978C516.695 180.315 553.902 203.982 595.152 226.972C628.018 245.279 663.551 261.996 696.925 275.006C681.847 264.963 665.478 254.559 647.987 243.901C647.457 243.584 647.309 242.906 647.627 242.397C647.944 241.867 648.622 241.719 649.13 242.037C669.671 254.559 688.793 266.806 706.178 278.566C716.152 282.295 725.893 285.643 735.253 288.609C775.678 301.322 803.652 304.31 808.205 296.364C813.816 286.617 790.48 257.462 647.479 174.022C646.949 173.725 646.78 173.047 647.076 172.517C647.373 171.988 648.05 171.818 648.58 172.115C766.276 240.787 819.11 281.786 810.11 297.466C803.631 308.738 764.264 301.873 713.675 283.693C736.884 299.648 756.747 314.65 772.544 328.168C803.673 354.802 816.506 373.469 810.661 383.64C807.887 388.449 801.005 390.314 791.963 390.314V390.272ZM381.084 128.021C370.559 128.021 364.037 130.458 361.517 134.823C360.225 137.069 360.056 140.014 361.051 143.553C369.416 173.704 453.612 239.007 561.228 298.843C676.384 362.854 796.664 403.515 808.776 382.474C817.099 367.981 776.801 329.037 705.141 280.494C670.454 267.505 631.279 249.601 594.094 228.879C549.391 203.982 509.432 178.217 479.171 155.418C433.05 136.179 400.354 128.021 381.084 128.021ZM797.447 231.824C785.694 231.824 767.123 225.722 751.241 219.492C719.414 207.012 679.37 186.671 638.479 162.198C598.117 138.044 561.271 111.982 534.737 88.7802C519.406 75.389 494.609 51.4248 500.601 41.4027C505.048 33.9655 524.17 37.1438 557.459 50.8315C588.44 63.587 628.462 84.3306 670.116 109.248C673.673 111.367 677.167 113.507 680.64 115.626C681.17 115.944 681.318 116.622 681 117.13C680.683 117.639 680.005 117.808 679.497 117.491C676.045 115.372 672.53 113.253 668.993 111.134C627.425 86.2588 587.508 65.5788 556.612 52.8656C525.864 40.2161 506.128 36.4445 502.486 42.5256C498.759 48.7551 511.359 65.4093 536.177 87.1063C562.626 110.223 599.345 136.2 639.601 160.291C680.407 184.701 720.324 204.978 752.046 217.416C782.349 229.302 802.614 232.735 806.278 226.633C812.122 216.844 776.017 179.255 697.581 128.869C697.073 128.53 696.925 127.852 697.242 127.343C697.581 126.835 698.259 126.686 698.767 127.004C757.785 164.911 817.204 212.627 808.162 227.756C806.447 230.637 802.593 231.803 797.447 231.803V231.824Z" fill="#FDFDFD"/>
<path d="M790.925 486.382C739.976 486.382 627.383 440.424 521.989 384.232C396.924 317.552 297.883 240.404 286.512 200.782C284.733 194.574 285.072 189.277 287.507 185.018C300.594 162.261 355.334 169.804 441.669 206.227C442.791 206.694 443.32 207.986 442.833 209.109C442.368 210.232 441.055 210.762 439.953 210.274C358.383 175.843 302.817 167.219 291.34 187.2C289.519 190.378 289.307 194.531 290.747 199.553C301.822 238.137 399.931 314.162 524.065 380.333C671.302 458.837 798.21 500.218 812.948 474.538C817.056 467.397 820.466 437.267 691.842 349.377C690.847 348.699 690.572 347.322 691.271 346.305C691.969 345.288 693.325 345.033 694.341 345.733C817.861 430.148 824.066 464.049 816.781 476.72C812.969 483.331 803.97 486.34 790.925 486.361V486.382Z" fill="#FDFDFD"/>
<path d="M566.456 14.1348L289.099 201.678L290.332 203.504L567.689 15.9606L566.456 14.1348Z" fill="#FDFDFD"/>
<path d="M797.617 485.917C796.41 485.917 795.415 484.943 795.415 483.735L792.111 142.028C792.111 140.82 793.085 139.824 794.292 139.803C795.499 139.803 796.495 140.777 796.495 141.985L799.798 483.692C799.798 484.9 798.824 485.896 797.617 485.917Z" fill="#FDFDFD"/>
<path d="M720.854 470.852C720.854 470.852 720.79 470.852 720.769 470.852C720.155 470.809 719.71 470.28 719.753 469.665L743.978 130.882C744.02 130.267 744.55 129.801 745.164 129.865C745.778 129.907 746.223 130.437 746.18 131.051L721.955 469.835C721.912 470.407 721.425 470.852 720.854 470.852ZM599.663 420.148C599.557 420.148 599.451 420.148 599.324 420.105C598.753 419.915 598.414 419.3 598.604 418.728L696.289 107.871C696.48 107.299 697.094 106.96 697.666 107.151C698.238 107.341 698.576 107.956 698.386 108.528L600.701 419.385C600.553 419.851 600.129 420.148 599.642 420.148H599.663ZM466 349.59C465.788 349.59 465.576 349.526 465.386 349.399C464.878 349.06 464.751 348.361 465.089 347.874L647.225 81.11C647.563 80.6015 648.262 80.4955 648.749 80.8134C649.257 81.1524 649.384 81.8516 649.046 82.3389L466.911 349.102C466.699 349.42 466.36 349.59 466 349.59ZM352.158 271.701C351.84 271.701 351.543 271.574 351.332 271.319C350.929 270.853 350.972 270.154 351.438 269.773L604.089 50.768C604.555 50.3654 605.254 50.429 605.635 50.874C606.037 51.3401 605.995 52.0393 605.529 52.4207L352.877 271.425C352.666 271.616 352.412 271.701 352.158 271.701Z" fill="#FDFDFD"/>
<path d="M677.548 394.127C676.638 394.127 675.791 393.555 675.473 392.665C674.393 389.656 665.287 362.98 677.421 355.098C678.226 354.568 679.179 353.996 680.216 353.382C686.146 349.864 694.235 345.033 694.404 336.579C694.616 323.76 677.252 306.025 642.735 283.841C642.248 283.523 641.909 283.036 641.782 282.527L625.095 312.827C624.502 313.886 623.168 314.289 622.109 313.696C621.051 313.102 620.648 311.767 621.241 310.708L644.302 268.797L640.702 265.195C640.003 264.496 639.855 263.436 640.342 262.568C640.49 262.292 655.928 233.709 637.568 209.109C637.06 208.431 636.996 207.52 637.377 206.757L647.245 188.069C646.695 186.416 644.937 182.242 640.702 179.509C639.686 178.852 639.389 177.474 640.046 176.457C640.702 175.44 642.078 175.144 643.095 175.801C650.019 180.293 651.692 187.518 651.756 187.836C651.862 188.344 651.798 188.874 651.544 189.34L641.909 207.605C658.299 230.848 647.965 256.762 644.937 263.203L648.601 266.869C649.299 267.568 649.448 268.628 648.961 269.496L643.222 279.942C643.836 279.751 644.535 279.794 645.107 280.175C681.487 303.567 699.042 322.044 698.788 336.706C698.597 347.64 688.877 353.403 682.461 357.238C681.487 357.81 680.576 358.361 679.814 358.848C671.979 363.934 677.019 383.957 679.624 391.224C680.026 392.369 679.433 393.64 678.289 394.042C678.035 394.127 677.802 394.17 677.548 394.17V394.127ZM414.267 259.22C413.377 259.22 412.551 258.69 412.212 257.8C411.768 256.656 412.34 255.385 413.483 254.961C420.217 252.376 438.386 243.689 441.435 234.493C442.24 232.077 441.922 229.789 440.482 227.501C436.374 221.038 435.654 210.296 442.431 203.176C449.694 195.506 470.108 187.327 525.25 218.135L533.17 204.469C533.594 203.727 534.398 203.324 535.266 203.367L538.464 203.642L546.913 192.476C547.527 191.734 560.466 176.648 585.708 177.58L598.244 158.426C598.541 157.981 598.964 157.663 599.472 157.515C599.832 157.43 608.197 155.163 623.126 162.812C624.206 163.363 624.629 164.698 624.079 165.778C623.528 166.859 622.194 167.283 621.114 166.732C610.336 161.202 603.559 161.371 601.399 161.625L588.694 181.034C588.27 181.691 587.529 182.072 586.724 182.03C562.732 180.632 550.471 195.061 550.344 195.209L541.217 207.244C540.772 207.859 540.052 208.177 539.269 208.113L536.262 207.859L513.095 247.905C513.434 250.638 513.963 253.372 514.323 254.071C515.065 254.94 515.022 256.253 514.217 257.059C513.413 257.864 511.973 257.927 511.105 257.059C510.003 255.957 509.178 252.8 508.627 247.651C508.585 247.185 508.669 246.719 508.902 246.316L523.027 221.928C468.562 191.522 450.753 200.761 445.607 206.185C440.377 211.694 440.97 220.063 444.188 225.106C446.369 228.518 446.835 232.141 445.607 235.849C441.287 248.922 416.13 258.648 415.05 259.05C414.796 259.156 414.521 259.199 414.267 259.199V259.22Z" fill="#FDFDFD"/>
<path d="M477.964 777.872L476.397 776.304L574.824 677.841L576.391 679.409L477.964 777.872ZM529.613 766.981L528.046 765.413L613.195 680.214L614.762 681.782L529.613 766.981ZM530.947 752.065L529.38 750.497L609.976 669.853L611.543 671.421L530.947 752.065ZM470.637 745.92L469.07 744.352L527.643 685.745L529.21 687.312L470.637 745.92ZM484.529 745.115L482.962 743.547L543.377 683.096L544.944 684.664L484.529 745.115ZM458.588 744.882L457.021 743.314L514.408 685.893L515.975 687.461L458.588 744.882ZM498.039 744.691L496.472 743.123L559.64 679.918L561.207 681.486L498.039 744.691ZM526.902 742.509L525.335 740.941L591.976 674.26L593.543 675.828L526.902 742.509ZM571.372 738.779L569.805 737.211L615.947 691.042L617.514 692.61L571.372 738.779ZM589.181 734.563L587.614 732.995L619.145 701.445L620.712 703.013L589.181 734.563ZM656.267 557.257L654.7 555.689L690.868 519.499L692.435 521.067L656.267 557.257ZM670.772 557.067L669.205 555.499L687.925 536.768L689.492 538.336L670.772 557.067ZM647.817 537.043L646.25 535.476L692.711 488.988L694.278 490.556L647.817 537.043ZM619.357 536.853L617.79 535.285L691.779 461.252L693.346 462.82L619.357 536.853ZM663.064 536.111L661.497 534.543L692.901 503.121L694.468 504.689L663.064 536.111ZM653.154 517.381L651.587 515.813L693.812 473.563L695.379 475.131L653.154 517.381ZM628.357 513.524L626.79 511.956L681.508 457.205L683.075 458.773L628.357 513.524ZM634.794 492.759L633.227 491.192L672.149 452.247L673.716 453.815L634.794 492.759ZM600.277 484.305L598.71 482.737L641.486 439.936L643.053 441.504L600.277 484.305ZM616.244 482.652L614.677 481.085L651.205 444.534L652.773 446.102L616.244 482.652ZM574.569 481.36L573.002 479.792L621.665 431.101L623.232 432.669L574.569 481.36ZM640.109 473.097L638.542 471.529L661.666 448.369L663.234 449.937L640.109 473.097ZM603.75 466.486L602.183 464.918L630.834 436.25L632.401 437.818L603.75 466.486ZM500.009 455.658L498.442 454.09L553.52 398.979L555.087 400.547L500.009 455.658ZM587.783 453.815L586.216 452.247L611.183 427.266L612.75 428.834L587.783 453.815ZM565.739 447.204L564.172 445.636L592.442 417.349L594.009 418.917L565.739 447.204ZM542.805 441.504L541.238 439.936L572.452 408.705L574.019 410.273L542.805 441.504ZM561.716 436.906L560.149 435.339L582.278 413.197L583.845 414.764L561.716 436.906ZM590.896 436.356L589.329 434.788L600.891 423.219L602.458 424.787L590.896 436.356ZM551.805 418.176L550.238 416.608L563.092 403.746L564.659 405.314L551.805 418.176ZM525.166 416.142L523.599 414.574L543.885 394.275L545.452 395.843L525.166 416.142ZM525.356 401.628L523.789 400.06L534.441 389.402L536.008 390.97L525.356 401.628ZM505.896 392.453L504.329 390.906L516.039 379.189L517.606 380.736L505.896 392.453ZM520.761 391.902L519.194 390.334L525.25 384.274L526.817 385.842L520.761 391.902ZM478.176 391.521L476.609 389.953L496.62 369.93L498.187 371.498L478.176 391.521ZM492.851 391.16L491.284 389.614L506.806 374.083L508.373 375.629L492.851 391.16ZM484.042 371.328L482.475 369.76L489.442 362.789L491.009 364.357L484.042 371.328ZM503.587 266.784L502.02 265.237L511.253 255.999L512.82 257.546L503.587 266.784ZM493.169 260.406L491.602 258.838L517.945 232.48L519.512 234.048L493.169 260.406ZM483.322 253.435L481.755 251.867L517.415 216.186L518.982 217.754L483.322 253.435ZM472.437 247.523L470.87 245.977L506.7 210.126L508.267 211.694L472.437 247.545V247.523ZM462.654 240.51L461.087 238.942L494.905 205.104L496.472 206.672L462.654 240.51ZM452.871 233.475L451.304 231.907L482.454 200.739L484.021 202.307L452.871 233.475ZM442.283 226.441L440.716 224.873L468.266 197.307L469.833 198.875L442.283 226.441Z" fill="#FDFDFD"/>
<path d="M790.269 485.175L788.744 484.836C786.521 661.04 642.609 803.702 466 803.702C289.392 803.702 143.214 658.815 143.214 480.726C143.214 366.689 202.592 266.255 292.039 208.771L290.642 207.055C200.707 264.963 141.012 365.99 141.012 480.726C141.012 660.023 286.809 805.906 466 805.906C645.192 805.906 790.989 660.023 790.989 480.726C790.989 476.658 790.904 472.589 790.735 468.563L790.248 485.196L790.269 485.175Z" fill="#FDFDFD"/>
<path d="M808.332 296.237L807.929 298.101L807.125 298.673C836.178 352.958 852.674 414.935 852.674 480.704C852.674 694.051 679.2 867.628 466 867.628C252.799 867.628 79.3254 694.072 79.3254 480.725C79.3254 282.104 229.696 117.978 422.504 96.2805L423.14 93.9922C228.786 115.414 77.123 280.663 77.123 480.725C77.123 695.28 251.571 869.852 466 869.852C680.429 869.852 854.898 695.301 854.898 480.725C854.898 414.024 838.021 351.179 808.332 296.258" fill="#FDFDFD"/>
<path d="M794.377 150.206V153.342C878.043 237.333 929.819 353.086 929.819 480.726C929.819 736.619 721.764 944.797 466.021 944.797C210.278 944.797 2.20231 736.619 2.20231 480.726C2.20231 224.832 210.257 16.6333 466 16.6333C495.519 16.6333 524.382 19.4514 552.377 24.7485L554.918 22.9899C526.119 17.3961 496.388 14.4297 465.979 14.4297C209.05 14.4297 0 223.603 0 480.726C0 737.848 209.05 947 466 947C722.95 947 932 737.827 932 480.726C932 351.666 879.314 234.706 794.377 150.206Z" fill="#FDFDFD"/>
<path d="M678.629 359.146C678.417 359.146 678.184 359.103 677.972 359.04C592.972 332.533 444.4 231.739 442.897 230.722C441.88 230.044 441.626 228.667 442.304 227.65C442.982 226.654 444.358 226.378 445.375 227.056C446.857 228.073 594.899 328.507 679.285 354.802C680.45 355.162 681.085 356.391 680.725 357.557C680.429 358.51 679.56 359.103 678.629 359.103V359.146Z" fill="#FDFDFD"/>
</g>
<defs>
<clipPath id="clip0_434_10455">
<rect width="932" height="947" fill="white"/>
</clipPath>
</defs>
</svg>
