<svg width="39" height="29" viewBox="0 0 39 29" fill="none" xmlns="http://www.w3.org/2000/svg">
<path d="M17.5762 3.47162C17.7961 3.00321 19.2802 0.247803 23.6232 0.247803C34.3157 0.247803 28.4886 24.5229 38.1915 24.5229" stroke="#09090A" stroke-width="0.432" stroke-linecap="round" stroke-linejoin="round"/>
<path d="M5.45357 26.5613C1.24804 24.3846 -0.401093 19.2319 1.77039 15.0162C3.08977 12.4536 5.536 10.8279 8.17477 10.4422L9.3842 8.1001L18.1526 12.619L16.9432 14.9611C18.1801 17.3583 18.29 20.279 16.9432 22.8415C14.7717 27.0573 9.63158 28.7106 5.42605 26.5613" fill="#EBEBEB"/>
<path d="M5.45357 26.5613C1.24804 24.3846 -0.401093 19.2319 1.77039 15.0162C3.08977 12.4536 5.536 10.8279 8.17477 10.4422L9.3842 8.1001L18.1526 12.619L16.9432 14.9611C18.1801 17.3583 18.29 20.279 16.9432 22.8415C14.7717 27.0573 9.63158 28.7106 5.42605 26.5613H5.45357Z" stroke="#09090A" stroke-width="0.432" stroke-linecap="round" stroke-linejoin="round"/>
<path d="M21.9746 17.5535L3.25586 7.90955L13.3161 1.24146L21.5073 5.45724L21.9746 17.5535Z" stroke="#09090A" stroke-width="0.432" stroke-linecap="round" stroke-linejoin="round"/>
<path d="M6.98678 9.84154L14.9581 2.07129M10.725 11.7703L16.5798 2.92546M14.4634 13.6991L18.2291 3.77964M18.2016 15.6279L19.8507 4.60626M21.6099 8.49138L10.78 2.92546M21.7198 11.5223L8.25125 4.57871M21.8574 14.5533L5.77734 6.25951" stroke="#09090A" stroke-width="0.432" stroke-miterlimit="10"/>
<path d="M3.52587 26.1509H15.153L15.8127 27.9694H2.86621L3.52587 26.1509Z" stroke="#09090A" stroke-width="0.432" stroke-linecap="round" stroke-linejoin="round"/>
</svg>
