<svg width="282" height="38" viewBox="0 0 282 38" fill="none" xmlns="http://www.w3.org/2000/svg">
<path d="M10.04 6.63416C11.32 6.75416 12.6 6.77416 13.88 6.69416C15.16 6.61416 16.42 6.35416 17.66 5.91416H17.72C17.84 5.71416 17.94 5.53416 18.02 5.37416C18.14 5.21416 18.28 5.03416 18.44 4.83416C18.72 4.47416 19.06 4.01416 19.46 3.45416C19.9 2.85416 20.36 2.31416 20.84 1.83416C21.36 1.31416 21.9 0.914159 22.46 0.634158C23.06 0.314157 23.64 0.254158 24.2 0.45416C24.96 0.69416 25.32 1.05416 25.28 1.53416C25.28 2.01416 25.1 2.53416 24.74 3.09416C24.38 3.61416 23.92 4.11416 23.36 4.59416C22.84 5.03416 22.44 5.33416 22.16 5.49416C21.72 5.81416 21.24 6.07416 20.72 6.27416C20.24 6.47416 19.76 6.67416 19.28 6.87416C18.64 7.75416 18.02 8.63416 17.42 9.51416C16.86 10.3942 16.26 11.2942 15.62 12.2142L8 24.1542C7.44 25.1142 6.86 26.0742 6.26 27.0342C5.66 27.9942 5.14 28.9742 4.7 29.9742C4.58 30.2142 4.4 30.5742 4.16 31.0542C3.92 31.5342 3.68 32.0542 3.44 32.6142C3.24 33.1742 3.1 33.6942 3.02 34.1742C2.94 34.6542 3.02 35.0142 3.26 35.2542C3.54 35.4942 4.22 35.5142 5.3 35.3142C6.38 35.1542 7.54 34.9142 8.78 34.5942C10.02 34.3142 11.18 33.9942 12.26 33.6342C13.34 33.3142 14.04 33.1142 14.36 33.0342C15.4 32.6742 16.42 32.2542 17.42 31.7742C18.42 31.2942 19.4 30.7742 20.36 30.2142L23.36 28.5342C23.56 28.4542 23.76 28.3742 23.96 28.2942C24.16 28.1742 24.36 28.1942 24.56 28.3542C24.8 28.4742 24.9 28.6742 24.86 28.9542C24.86 29.2342 24.76 29.4342 24.56 29.5542C22.72 30.5142 20.88 31.4742 19.04 32.4342C17.2 33.3542 15.3 34.1542 13.34 34.8342C11.94 35.3142 10.56 35.8142 9.2 36.3342C7.84 36.8942 6.4 37.2742 4.88 37.4742C4.12 37.5542 3.36 37.4742 2.6 37.2342C1.88 37.0342 1.4 36.5342 1.16 35.7342C1 35.2542 0.94 34.7742 0.98 34.2942C1.06 33.8142 1.18 33.3342 1.34 32.8542C1.54 32.3742 1.76 31.9142 2 31.4742C2.24 30.9942 2.48 30.5542 2.72 30.1542C3.68 28.4342 4.7 26.7742 5.78 25.1742C6.86 23.5342 7.92 21.8942 8.96 20.2542C10.28 18.2142 11.52 16.1542 12.68 14.0742C13.88 11.9542 15.12 9.87416 16.4 7.83416C15.84 7.95416 15.3 8.07416 14.78 8.19416C14.26 8.27416 13.72 8.35416 13.16 8.43416C12.92 8.47416 12.62 8.53416 12.26 8.61416C11.94 8.69416 11.6 8.77416 11.24 8.85416C10.88 8.89416 10.52 8.91416 10.16 8.91416C9.84 8.91416 9.58 8.83416 9.38 8.67416C9.14 8.51416 8.98 8.31416 8.9 8.07416C8.86 7.83416 8.88 7.61416 8.96 7.41416C9.04 7.17416 9.16 6.99416 9.32 6.87416C9.52 6.71416 9.76 6.63416 10.04 6.63416ZM22.7 2.91416C22.14 3.27416 21.66 3.75416 21.26 4.35416C21.54 4.15416 21.8 3.93416 22.04 3.69416C22.32 3.41416 22.54 3.15416 22.7 2.91416ZM22.7052 28.3542C23.7452 27.9942 24.7252 27.5542 25.6452 27.0342C26.6052 26.5142 27.5852 26.0342 28.5852 25.5942C29.2252 25.2742 29.8852 25.0142 30.5652 24.8142C31.2452 24.6142 31.9252 24.4142 32.6052 24.2142C33.4052 23.9342 34.2652 23.7942 35.1852 23.7942C35.5452 23.7942 35.8452 23.9542 36.0852 24.2742C36.3252 24.5942 36.3452 24.9342 36.1452 25.2942C36.0252 25.5342 35.8452 25.7142 35.6052 25.8342C35.3652 25.9142 35.0852 25.9742 34.7652 26.0142C34.4852 26.0142 34.1852 26.0142 33.8652 26.0142C33.5852 26.0142 33.3252 26.0142 33.0852 26.0142C32.5252 26.0542 31.9452 26.2342 31.3452 26.5542C30.7852 26.8342 30.2452 27.1942 29.7252 27.6342C29.0452 28.1142 28.4252 28.7542 27.8652 29.5542C27.8252 29.6342 27.7252 29.8142 27.5652 30.0942C27.4452 30.3342 27.3252 30.5942 27.2052 30.8742C27.0852 31.1542 26.9852 31.4142 26.9052 31.6542C26.8652 31.8942 26.9052 32.0742 27.0252 32.1942C27.1452 32.3142 27.3252 32.3542 27.5652 32.3142C27.8452 32.2342 28.1052 32.1342 28.3452 32.0142C28.6252 31.8542 28.8652 31.7142 29.0652 31.5942C29.3052 31.4342 29.4652 31.3342 29.5452 31.2942C30.2252 30.8942 30.8652 30.4742 31.4652 30.0342C32.0652 29.5942 32.6852 29.1542 33.3252 28.7142L36.1452 26.1942C36.8252 24.7942 37.5452 23.4142 38.3052 22.0542C39.0652 20.6542 39.8452 19.2742 40.6452 17.9142C41.2052 16.9942 41.7652 16.0742 42.3252 15.1542C42.8852 14.2342 43.4852 13.3142 44.1252 12.3942C44.7252 11.5542 45.3852 10.6942 46.1052 9.81416C46.8252 8.89416 47.6652 8.19416 48.6252 7.71416C48.9052 7.63416 49.1652 7.55416 49.4052 7.47416C49.6852 7.39416 49.9652 7.39416 50.2452 7.47416C50.6852 7.55416 51.0052 7.71416 51.2052 7.95416C51.4052 8.19416 51.5052 8.49416 51.5052 8.85416C51.5452 9.17416 51.5052 9.53416 51.3852 9.93416C51.3052 10.2942 51.1852 10.6142 51.0252 10.8942C50.3452 12.0542 49.5652 13.1542 48.6852 14.1942C47.8452 15.2342 46.9852 16.2742 46.1052 17.3142C44.7452 18.9542 43.3652 20.5542 41.9652 22.1142C40.6052 23.6342 39.1652 25.1142 37.6452 26.5542C37.4452 27.1142 37.2452 27.6542 37.0452 28.1742C36.8852 28.6942 36.7052 29.2342 36.5052 29.7942C36.4252 29.9942 36.3252 30.2342 36.2052 30.5142C36.1252 30.7942 36.0252 31.0942 35.9052 31.4142C35.8252 31.7342 35.7452 32.0542 35.6652 32.3742C35.6252 32.6942 35.6252 32.9542 35.6652 33.1542C36.3852 33.1142 37.1052 32.9542 37.8252 32.6742C38.5852 32.3942 39.2852 32.1142 39.9252 31.8342C41.0452 31.3942 42.1652 30.8742 43.2852 30.2742C44.4452 29.6342 45.5452 29.0342 46.5852 28.4742C46.7052 28.3942 46.8652 28.3542 47.0652 28.3542C47.3052 28.3142 47.5052 28.3142 47.6652 28.3542C47.8652 28.3942 47.9852 28.4942 48.0252 28.6542C48.0652 28.8142 48.0052 29.0342 47.8452 29.3142C47.6452 29.6342 47.3452 29.8742 46.9452 30.0342C46.5452 30.1542 46.2052 30.2742 45.9252 30.3942C44.8052 30.9542 43.6852 31.5342 42.5652 32.1342C41.4452 32.7342 40.3452 33.3342 39.2652 33.9342C38.9452 34.0942 38.5852 34.2742 38.1852 34.4742C37.7852 34.7142 37.3652 34.9142 36.9252 35.0742C36.4852 35.2342 36.0452 35.3142 35.6052 35.3142C35.2052 35.3142 34.8252 35.1942 34.4652 34.9542C34.1052 34.6742 33.8652 34.3342 33.7452 33.9342C33.6652 33.5342 33.6452 33.1142 33.6852 32.6742C33.7652 32.1942 33.8652 31.7542 33.9852 31.3542C34.1452 30.9142 34.2852 30.5342 34.4052 30.2142C34.4452 30.0542 34.4852 29.9142 34.5252 29.7942C34.5652 29.6342 34.6252 29.4542 34.7052 29.2542L31.7052 31.8342C31.3852 32.1542 31.0252 32.4942 30.6252 32.8542C30.2252 33.1742 29.7852 33.4542 29.3052 33.6942C28.8652 33.9742 28.4052 34.1742 27.9252 34.2942C27.4452 34.4142 26.9652 34.4142 26.4852 34.2942C25.6852 34.0542 25.1852 33.6742 24.9852 33.1542C24.8252 32.6342 24.8452 32.0542 25.0452 31.4142C25.2852 30.7742 25.6452 30.1342 26.1252 29.4942C26.6052 28.8142 27.1252 28.1942 27.6852 27.6342L26.1852 28.2342C25.7852 28.4342 25.3052 28.7142 24.7452 29.0742C24.1852 29.3942 23.6852 29.5742 23.2452 29.6142C23.0052 29.7342 22.8052 29.7542 22.6452 29.6742C22.4852 29.5542 22.3852 29.4142 22.3452 29.2542C22.2652 29.0942 22.2452 28.9342 22.2852 28.7742C22.3252 28.5742 22.4652 28.4342 22.7052 28.3542ZM39.7452 22.4742C40.7852 21.3942 41.8052 20.2942 42.8052 19.1742C43.8052 18.0142 44.7652 16.8342 45.6852 15.6342C46.0852 15.0742 46.4852 14.5342 46.8852 14.0142C47.2852 13.4542 47.6652 12.8742 48.0252 12.2742C48.1452 12.0342 48.3652 11.6542 48.6852 11.1342C49.0452 10.6142 49.2652 10.1342 49.3452 9.69416C48.7852 9.89416 48.2652 10.2742 47.7852 10.8342C47.3052 11.3942 46.9252 11.8342 46.6452 12.1542C45.7252 13.1542 44.8652 14.1942 44.0652 15.2742C43.2652 16.3542 42.5052 17.4742 41.7852 18.6342L39.3852 22.8342L39.7452 22.4742ZM45.6458 28.3542C46.3658 27.9942 47.1058 27.5942 47.8658 27.1542C48.6658 26.7142 49.4658 26.3342 50.2658 26.0142C50.7858 25.0942 51.5258 24.3542 52.4858 23.7942C53.4458 23.1942 54.4658 22.7942 55.5458 22.5942C56.1058 22.5142 56.7458 22.5142 57.4658 22.5942C58.2258 22.6742 58.8058 22.9742 59.2058 23.4942C59.4858 23.8142 59.5458 24.1542 59.3858 24.5142C59.2658 24.8742 59.0258 25.2142 58.6658 25.5342C58.3458 25.8542 57.9658 26.1542 57.5258 26.4342C57.1258 26.6742 56.8258 26.8542 56.6258 26.9742C55.9058 27.4142 55.1058 27.7542 54.2258 27.9942C53.3858 28.1942 52.5258 28.2542 51.6458 28.1742H51.4058C51.5658 29.0542 51.9258 29.7342 52.4858 30.2142C53.0458 30.6942 53.7058 31.0542 54.4658 31.2942C55.2258 31.4942 56.0058 31.5742 56.8058 31.5342C57.6458 31.4942 58.4058 31.4142 59.0858 31.2942C60.0458 31.0942 60.9858 30.8542 61.9058 30.5742C62.8258 30.2542 63.7258 29.8942 64.6058 29.4942C65.0058 29.2942 65.4058 29.1142 65.8058 28.9542C66.2458 28.7542 66.6458 28.5542 67.0058 28.3542C67.2858 28.2742 67.5658 28.3142 67.8458 28.4742C68.1658 28.6342 68.2058 28.8942 67.9658 29.2542C67.7658 29.5742 67.4858 29.7942 67.1258 29.9142C66.7658 30.0342 66.4458 30.1542 66.1658 30.2742L63.1658 31.5942C61.3258 32.3142 59.5058 32.9142 57.7058 33.3942C56.9058 33.5542 56.0858 33.5942 55.2458 33.5142C54.4458 33.4742 53.6858 33.3142 52.9658 33.0342C52.2858 32.7142 51.6658 32.2742 51.1058 31.7142C50.5458 31.1542 50.1458 30.4342 49.9058 29.5542C49.8258 29.2342 49.7458 28.9142 49.6658 28.5942C49.6258 28.2742 49.6458 27.9742 49.7258 27.6942C49.2858 27.8942 48.8458 28.1342 48.4058 28.4142C48.0058 28.6542 47.6458 28.8742 47.3258 29.0742C47.1258 29.1542 46.8658 29.3142 46.5458 29.5542C46.2258 29.7542 45.9058 29.7542 45.5858 29.5542C45.3458 29.3942 45.2458 29.1742 45.2858 28.8942C45.2858 28.6142 45.4058 28.4342 45.6458 28.3542ZM51.7658 26.6742C52.7258 26.6342 53.6458 26.3942 54.5258 25.9542C55.4458 25.5142 56.2458 24.9542 56.9258 24.2742C56.3658 24.0742 55.8058 24.0142 55.2458 24.0942C54.7258 24.1742 54.2258 24.3342 53.7458 24.5742C53.3058 24.8142 52.9058 25.1342 52.5458 25.5342C52.1858 25.8942 51.9258 26.2742 51.7658 26.6742ZM65.5939 28.4142C66.0739 28.1742 66.6739 27.8742 67.3939 27.5142C68.1539 27.1142 68.9539 26.7342 69.7939 26.3742C70.6339 26.0142 71.4339 25.6742 72.1939 25.3542C72.9939 25.0342 73.6539 24.7742 74.1739 24.5742C74.4539 24.4542 74.9539 24.2742 75.6739 24.0342C76.3939 23.7942 77.1539 23.5742 77.9539 23.3742C78.7539 23.1742 79.4939 23.0342 80.1739 22.9542C80.8939 22.8742 81.4139 22.9342 81.7339 23.1342C82.2139 23.5742 82.2939 23.9742 81.9739 24.3342C81.6939 24.6942 81.3339 24.9142 80.8939 24.9942L78.1939 25.2942C77.6339 25.4542 77.1539 25.6542 76.7539 25.8942C76.3939 26.0942 75.9739 26.3542 75.4939 26.6742C75.2939 26.8342 74.9339 27.1742 74.4139 27.6942C73.9339 28.1742 73.4539 28.7142 72.9739 29.3142C72.4939 29.8742 72.1139 30.4342 71.8339 30.9942C71.5539 31.5142 71.5539 31.8942 71.8339 32.1342C72.0739 32.3342 72.4539 32.3742 72.9739 32.2542C73.5339 32.1342 74.0939 31.9542 74.6539 31.7142C75.2139 31.4742 75.7339 31.2342 76.2139 30.9942C76.6939 30.7142 77.0139 30.5142 77.1739 30.3942C78.3339 29.6742 79.2739 28.9142 79.9939 28.1142C80.3539 27.7142 80.7339 27.6742 81.1339 27.9942C81.5739 28.2742 81.7139 28.6742 81.5539 29.1942C81.4739 29.4742 81.3339 29.7142 81.1339 29.9142C80.9339 30.1142 80.7339 30.3142 80.5339 30.5142C80.3739 30.6742 80.2339 30.9142 80.1139 31.2342C79.9539 31.5142 79.9139 31.7342 79.9939 31.8942C80.0739 32.0142 80.2139 32.0942 80.4139 32.1342C80.9739 32.2142 81.6739 32.1742 82.5139 32.0142C83.3539 31.8542 84.2139 31.6342 85.0939 31.3542C86.0139 31.0742 86.9139 30.7542 87.7939 30.3942C88.6739 29.9942 89.4339 29.6342 90.0739 29.3142C90.2339 29.2742 90.4539 29.1742 90.7339 29.0142C91.0139 28.8142 91.2939 28.6542 91.5739 28.5342C91.8939 28.4142 92.1939 28.3542 92.4739 28.3542C92.7539 28.3542 92.9539 28.4742 93.0739 28.7142C93.2339 28.9542 93.2139 29.1742 93.0139 29.3742C92.8539 29.5742 92.6139 29.7542 92.2939 29.9142C91.9739 30.0342 91.6539 30.1542 91.3339 30.2742C91.0139 30.3942 90.7739 30.4942 90.6139 30.5742C89.9339 30.8942 89.2539 31.2142 88.5739 31.5342C87.8939 31.8142 87.1939 32.1142 86.4739 32.4342C85.9939 32.6342 85.4739 32.8742 84.9139 33.1542C84.3539 33.4342 83.7739 33.6742 83.1739 33.8742C82.5739 34.0742 81.9539 34.2142 81.3139 34.2942C80.7139 34.3742 80.1539 34.3142 79.6339 34.1142C78.9539 33.8342 78.5539 33.4542 78.4339 32.9742C78.3139 32.4542 78.3339 31.9142 78.4939 31.3542L76.8739 32.3142C76.1939 32.7142 75.4739 33.1142 74.7139 33.5142C73.9939 33.9542 73.2339 34.2142 72.4339 34.2942C71.7139 34.3342 71.0739 34.1742 70.5139 33.8142C69.9539 33.4542 69.6539 32.8942 69.6139 32.1342C69.6139 31.7342 69.7739 31.2342 70.0939 30.6342C70.4139 29.9942 70.8139 29.3542 71.2939 28.7142C71.8139 28.0342 72.3739 27.4142 72.9739 26.8542C73.5739 26.2942 74.1339 25.8742 74.6539 25.5942C74.3739 25.6742 73.9139 25.8542 73.2739 26.1342C72.6739 26.4142 71.9739 26.7542 71.1739 27.1542C70.4139 27.5542 69.5939 27.9742 68.7139 28.4142C67.8739 28.8142 67.0939 29.1942 66.3739 29.5542C66.1739 29.6742 65.9739 29.7142 65.7739 29.6742C65.5739 29.5942 65.4339 29.4942 65.3539 29.3742C65.2339 29.2142 65.1939 29.0542 65.2339 28.8942C65.2339 28.6942 65.3539 28.5342 65.5939 28.4142ZM90.7597 28.4142C91.0397 28.2542 91.5397 27.9742 92.2597 27.5742C93.0197 27.1342 93.8397 26.6942 94.7197 26.2542C95.6397 25.8142 96.5597 25.4142 97.4797 25.0542C98.3997 24.6542 99.1997 24.4342 99.8797 24.3942C100.12 24.3142 100.36 24.3342 100.6 24.4542C100.88 24.5342 101.08 24.6542 101.2 24.8142C101.44 25.2142 101.46 25.5342 101.26 25.7742C101.06 25.9742 100.8 26.1542 100.48 26.3142C100.16 26.4742 99.7997 26.6142 99.3997 26.7342C99.0397 26.8142 98.7997 26.9342 98.6797 27.0942C98.4797 27.3342 98.5197 27.5542 98.7997 27.7542C99.1197 27.9542 99.4997 28.1142 99.9397 28.2342C100.38 28.3542 100.82 28.4742 101.26 28.5942C101.7 28.6742 101.98 28.7542 102.1 28.8342C102.9 29.2742 103.36 29.7542 103.48 30.2742C103.64 30.7542 103.56 31.2542 103.24 31.7742L104.86 30.9342L109.66 28.4142C109.94 28.2542 110.18 28.2542 110.38 28.4142C110.62 28.5342 110.74 28.7542 110.74 29.0742C110.74 29.3942 110.56 29.6342 110.2 29.7942C109.88 29.9142 109.58 30.0342 109.3 30.1542C108.34 30.5942 107.36 31.0742 106.36 31.5942C105.4 32.0742 104.44 32.5742 103.48 33.0942C102.32 33.6542 101.2 34.1542 100.12 34.5942C99.0797 35.0342 97.9997 35.2542 96.8797 35.2542C96.0797 35.2542 95.3597 34.9742 94.7197 34.4142C94.1197 33.8542 93.8197 33.2142 93.8197 32.4942C93.7797 32.1342 93.8597 31.8542 94.0597 31.6542C94.2597 31.4142 94.4997 31.2742 94.7797 31.2342C95.0597 31.1542 95.2997 31.1942 95.4997 31.3542C95.7397 31.5142 95.8797 31.7742 95.9197 32.1342C95.9997 32.9342 96.3397 33.3942 96.9397 33.5142C97.5797 33.6742 98.3197 33.6542 99.1597 33.4542C99.7197 33.2542 100.22 33.0142 100.66 32.7342C101.14 32.4142 101.48 32.1142 101.68 31.8342C102.2 31.2742 102.34 30.8342 102.1 30.5142C101.86 30.1942 101.44 29.9342 100.84 29.7342C100.28 29.5342 99.6797 29.3742 99.0397 29.2542C98.3997 29.0942 97.9597 28.9142 97.7197 28.7142C97.3597 28.3942 97.1397 28.0742 97.0597 27.7542C97.0197 27.4342 97.0397 27.1142 97.1197 26.7942C96.5197 27.0342 95.9197 27.2942 95.3197 27.5742C94.7597 27.8142 94.2397 28.0342 93.7597 28.2342C93.3997 28.4342 92.9597 28.7342 92.4397 29.1342C91.9597 29.4942 91.5197 29.6742 91.1197 29.6742C90.9197 29.7142 90.7597 29.6942 90.6397 29.6142C90.4797 29.4942 90.3997 29.3742 90.3997 29.2542C90.3597 29.0942 90.3797 28.9342 90.4597 28.7742C90.4997 28.6142 90.5997 28.4942 90.7597 28.4142ZM125.221 28.3542C126.261 27.9142 127.241 27.4142 128.161 26.8542C129.121 26.2942 130.101 25.7742 131.101 25.2942C131.461 25.1342 131.801 24.9742 132.121 24.8142C132.441 24.6542 132.781 24.5342 133.141 24.4542C133.821 24.1742 134.621 23.9342 135.541 23.7342C136.461 23.5342 137.281 23.4742 138.001 23.5542C138.281 23.6342 138.501 23.7942 138.661 24.0342C138.861 24.2342 138.961 24.4542 138.961 24.6942C139.001 24.9342 138.941 25.1542 138.781 25.3542C138.661 25.5542 138.421 25.6742 138.061 25.7142C137.821 25.7942 137.541 25.8142 137.221 25.7742C136.941 25.6942 136.641 25.6342 136.321 25.5942C135.761 25.5542 135.201 25.5742 134.641 25.6542C134.121 25.7342 133.601 25.9142 133.081 26.1942C132.281 26.5542 131.701 27.1142 131.341 27.8742C130.981 28.5942 131.101 29.3542 131.701 30.1542C132.301 30.8742 133.041 31.3542 133.921 31.5942C134.801 31.7942 135.721 31.8542 136.681 31.7742C137.681 31.6542 138.661 31.4542 139.621 31.1742C140.581 30.8942 141.421 30.6342 142.141 30.3942C143.061 30.1142 143.901 29.7742 144.661 29.3742C145.421 28.9742 146.081 28.6342 146.641 28.3542C146.921 28.1542 147.181 28.1942 147.421 28.4742C147.701 28.7142 147.741 28.9942 147.541 29.3142C147.421 29.6342 147.141 29.8742 146.701 30.0342C146.301 30.1942 145.941 30.3142 145.621 30.3942C143.981 31.1942 142.261 31.9342 140.461 32.6142C138.661 33.2942 136.821 33.6342 134.941 33.6342C134.101 33.6742 133.301 33.5342 132.541 33.2142C131.781 32.8942 131.141 32.4542 130.621 31.8942C130.101 31.3342 129.741 30.6742 129.541 29.9142C129.381 29.1142 129.501 28.2742 129.901 27.3942V27.3342C129.461 27.5742 129.021 27.8342 128.581 28.1142C128.181 28.3942 127.761 28.6342 127.321 28.8342C127.081 28.9942 126.781 29.1942 126.421 29.4342C126.101 29.6742 125.781 29.7542 125.461 29.6742C125.101 29.6742 124.901 29.4942 124.861 29.1342C124.781 28.7342 124.901 28.4742 125.221 28.3542ZM151.528 25.6542C152.328 25.3342 153.148 25.0542 153.988 24.8142C154.868 24.5742 155.708 24.3342 156.508 24.0942C157.028 23.8142 157.608 23.5942 158.248 23.4342C158.888 23.2742 159.468 23.3542 159.988 23.6742C160.308 23.9142 160.428 24.2342 160.348 24.6342C160.628 24.5942 160.908 24.6742 161.188 24.8742C161.708 25.3942 161.888 26.0142 161.728 26.7342C161.568 27.4542 161.268 28.1542 160.828 28.8342C160.988 29.0342 161.228 29.2342 161.548 29.4342C162.188 29.8342 162.888 30.0142 163.648 29.9742C164.408 29.9342 165.128 29.8142 165.808 29.6142C166.008 29.5742 166.308 29.4542 166.708 29.2542C167.108 29.0542 167.508 28.8742 167.908 28.7142C168.348 28.5142 168.748 28.3942 169.108 28.3542C169.468 28.2742 169.708 28.3542 169.828 28.5942C169.988 28.9142 169.968 29.1942 169.768 29.4342C169.568 29.6342 169.288 29.8142 168.928 29.9742C168.608 30.0942 168.268 30.2142 167.908 30.3342C167.548 30.4542 167.308 30.5342 167.188 30.5742C166.588 30.7742 165.948 30.9342 165.268 31.0542C164.628 31.1742 163.988 31.2342 163.348 31.2342C162.708 31.2342 162.088 31.1542 161.488 30.9942C160.888 30.7942 160.368 30.4742 159.928 30.0342L158.608 31.4142C158.128 31.8542 157.588 32.2942 156.988 32.7342C156.388 33.1742 155.748 33.5342 155.068 33.8142C154.428 34.1342 153.748 34.3342 153.028 34.4142C152.308 34.4942 151.628 34.3942 150.988 34.1142C150.188 33.7542 149.708 33.2942 149.548 32.7342C149.428 32.1342 149.488 31.5142 149.728 30.8742C149.968 30.2342 150.308 29.6142 150.748 29.0142C151.188 28.4142 151.608 27.9142 152.008 27.5142L153.148 26.3742C152.228 26.6942 151.328 27.0542 150.448 27.4542C149.568 27.8542 148.688 28.2742 147.808 28.7142C147.648 28.7942 147.448 28.9142 147.208 29.0742C146.968 29.1942 146.728 29.3142 146.488 29.4342C146.248 29.5542 146.008 29.6542 145.768 29.7342C145.568 29.7742 145.388 29.7342 145.228 29.6142C144.948 29.4542 144.828 29.2342 144.868 28.9542C144.908 28.6742 145.048 28.4742 145.288 28.3542L151.528 25.6542ZM153.568 27.7542C153.408 27.9142 153.108 28.2142 152.668 28.6542C152.268 29.0942 151.908 29.5542 151.588 30.0342C151.268 30.5142 151.068 30.9742 150.988 31.4142C150.948 31.8142 151.208 32.0542 151.768 32.1342C152.808 32.2942 153.788 32.2542 154.708 32.0142C155.668 31.7742 156.528 31.3142 157.288 30.6342C157.608 30.3142 157.908 30.0142 158.188 29.7342C158.468 29.4542 158.708 29.1342 158.908 28.7742C158.708 28.2542 158.588 27.6942 158.548 27.0942C158.548 26.4942 158.708 25.9742 159.028 25.5342C157.908 25.6142 156.888 25.8542 155.968 26.2542C155.088 26.6542 154.288 27.1542 153.568 27.7542ZM167.464 28.4142C167.904 28.1742 168.664 27.7742 169.744 27.2142C170.824 26.6142 171.924 26.0542 173.044 25.5342C174.204 25.0142 175.264 24.6542 176.224 24.4542C177.184 24.2542 177.784 24.4142 178.024 24.9342C178.184 25.3342 178.124 25.7342 177.844 26.1342C177.604 26.4942 177.424 26.8342 177.304 27.1542L176.584 28.8342C177.104 28.5142 177.624 28.2342 178.144 27.9942C178.664 27.7542 179.184 27.5142 179.704 27.2742C180.984 26.5942 182.304 25.8742 183.664 25.1142C185.024 24.3542 186.404 23.7742 187.804 23.3742C188.324 23.2542 188.784 23.2542 189.184 23.3742C189.584 23.4542 189.884 23.6342 190.084 23.9142C190.324 24.1542 190.444 24.4942 190.444 24.9342C190.444 25.3342 190.284 25.7742 189.964 26.2542C189.604 26.8142 189.204 27.3142 188.764 27.7542C188.364 28.1942 187.944 28.6742 187.504 29.1942C187.424 29.3142 187.284 29.4742 187.084 29.6742C186.884 29.8742 186.664 30.1142 186.424 30.3942C186.224 30.6342 186.024 30.8942 185.824 31.1742C185.664 31.4142 185.564 31.6342 185.524 31.8342C185.804 31.9142 186.144 31.9142 186.544 31.8342C186.984 31.7542 187.404 31.6542 187.804 31.5342C188.244 31.3742 188.644 31.2142 189.004 31.0542C189.404 30.8942 189.704 30.7742 189.904 30.6942L192.364 29.6142C192.524 29.5342 192.724 29.4142 192.964 29.2542C193.244 29.0942 193.524 28.9542 193.804 28.8342C194.084 28.6742 194.344 28.5342 194.584 28.4142C194.864 28.2942 195.084 28.2342 195.244 28.2342C195.604 28.2342 195.784 28.4142 195.784 28.7742C195.784 29.1342 195.624 29.4142 195.304 29.6142C194.944 29.8142 194.564 30.0142 194.164 30.2142C193.764 30.3742 193.344 30.5542 192.904 30.7542C192.344 31.0742 191.804 31.3542 191.284 31.5942C190.764 31.8342 190.224 32.0942 189.664 32.3742C189.344 32.5342 188.824 32.7742 188.104 33.0942C187.424 33.3742 186.724 33.5742 186.004 33.6942C185.324 33.8542 184.724 33.8342 184.204 33.6342C183.684 33.4742 183.424 32.9942 183.424 32.1942C183.424 31.7942 183.524 31.4342 183.724 31.1142C183.924 30.7942 184.144 30.4942 184.384 30.2142C184.664 29.8942 184.944 29.5942 185.224 29.3142C185.544 29.0342 185.824 28.7742 186.064 28.5342C186.304 28.3342 186.704 27.9142 187.264 27.2742C187.824 26.6342 188.184 26.0342 188.344 25.4742C187.264 25.5942 186.164 25.8742 185.044 26.3142C183.964 26.7542 182.964 27.2142 182.044 27.6942C180.884 28.2542 179.684 28.8942 178.444 29.6142C177.204 30.2942 176.124 31.1142 175.204 32.0742C175.004 32.2342 174.784 32.3342 174.544 32.3742C174.344 32.3742 174.144 32.3342 173.944 32.2542C173.744 32.1342 173.584 31.9742 173.464 31.7742C173.384 31.5742 173.384 31.3142 173.464 30.9942C173.584 30.6342 173.884 30.3142 174.364 30.0342C174.564 29.7142 174.764 29.3542 174.964 28.9542C175.164 28.5142 175.304 28.2542 175.384 28.1742C175.464 27.8942 175.544 27.6142 175.624 27.3342C175.704 27.0142 175.764 26.6942 175.804 26.3742C175.364 26.4942 174.924 26.6342 174.484 26.7942C174.044 26.9542 173.704 27.0742 173.464 27.1542C172.904 27.3942 172.344 27.6342 171.784 27.8742C171.224 28.0742 170.664 28.3142 170.104 28.5942C169.784 28.7542 169.484 28.9142 169.204 29.0742C168.964 29.2342 168.684 29.3742 168.364 29.4942C168.124 29.6142 167.884 29.6542 167.644 29.6142C167.444 29.5342 167.284 29.4342 167.164 29.3142C167.044 29.1942 167.004 29.0542 167.044 28.8942C167.044 28.6942 167.184 28.5342 167.464 28.4142ZM210.066 28.3542C211.306 27.7942 212.506 27.1742 213.666 26.4942C214.826 25.8142 215.986 25.0742 217.146 24.2742C217.706 23.1542 218.326 22.0742 219.006 21.0342C219.686 19.9942 220.346 18.9742 220.986 17.9742C221.666 17.0542 222.346 16.1342 223.026 15.2142C223.706 14.2542 224.406 13.3142 225.126 12.3942C225.726 11.5942 226.366 10.7942 227.046 9.99416C227.766 9.15416 228.586 8.47416 229.506 7.95416C229.946 7.71416 230.486 7.55416 231.126 7.47416C231.766 7.35416 232.206 7.63416 232.446 8.31416C232.606 8.75416 232.606 9.19416 232.446 9.63416C232.326 10.0342 232.126 10.4542 231.846 10.8942C231.566 11.2942 231.266 11.6942 230.946 12.0942C230.626 12.4542 230.366 12.7742 230.166 13.0542C228.566 15.3342 226.766 17.4742 224.766 19.4742C222.806 21.4342 220.686 23.2542 218.406 24.9342C218.206 25.4142 217.966 25.9342 217.686 26.4942C217.446 27.0142 217.226 27.5742 217.026 28.1742C216.826 28.7742 216.686 29.3742 216.606 29.9742C216.526 30.5342 216.546 31.0742 216.666 31.5942C217.106 31.5142 217.506 31.4542 217.866 31.4142C218.186 31.3742 218.486 31.3542 218.766 31.3542C219.046 31.3142 219.226 31.2742 219.306 31.2342C220.506 30.9942 221.686 30.6742 222.846 30.2742C224.006 29.8742 225.146 29.4342 226.266 28.9542C226.586 28.8742 226.966 28.7142 227.406 28.4742C227.846 28.2342 228.226 28.2142 228.546 28.4142C228.986 28.7342 229.046 29.0342 228.726 29.3142C228.406 29.5542 228.106 29.7342 227.826 29.8542L220.866 32.4342C220.186 32.6742 219.526 32.9342 218.886 33.2142C218.246 33.4542 217.586 33.5942 216.906 33.6342C216.306 33.7142 215.826 33.6342 215.466 33.3942C215.106 33.1142 214.846 32.7742 214.686 32.3742C214.566 31.9342 214.526 31.4742 214.566 30.9942C214.606 30.4742 214.686 29.9942 214.806 29.5542C215.086 28.5942 215.446 27.6342 215.886 26.6742C214.246 27.7542 212.526 28.7342 210.726 29.6142C210.326 29.6942 210.006 29.5742 209.766 29.2542C209.486 28.8942 209.586 28.5942 210.066 28.3542ZM222.246 20.1342C224.126 18.3742 225.846 16.4742 227.406 14.4342C228.126 13.5942 228.806 12.6342 229.446 11.5542C229.526 11.3542 229.646 11.1142 229.806 10.8342C229.966 10.5142 230.106 10.1942 230.226 9.87416C229.666 10.1542 229.126 10.5342 228.606 11.0142C228.126 11.4942 227.726 11.8942 227.406 12.2142C226.486 13.1342 225.626 14.1142 224.826 15.1542C224.026 16.1542 223.226 17.1942 222.426 18.2742C221.986 18.9142 221.566 19.5542 221.166 20.1942C220.766 20.7942 220.386 21.4142 220.026 22.0542C220.386 21.7742 220.746 21.4742 221.106 21.1542C221.506 20.7942 221.886 20.4542 222.246 20.1342ZM226.503 28.3542C227.543 28.0342 228.563 27.6542 229.563 27.2142C230.563 26.7342 231.563 26.2742 232.563 25.8342C232.803 25.7142 233.163 25.4942 233.643 25.1742C234.163 24.8142 234.683 24.4942 235.203 24.2142C235.723 23.9342 236.203 23.7542 236.643 23.6742C237.123 23.5542 237.483 23.6742 237.723 24.0342C237.923 24.3542 237.943 24.6742 237.783 24.9942C237.663 25.2742 237.463 25.5742 237.183 25.8942C236.903 26.1742 236.603 26.4542 236.283 26.7342C235.963 26.9742 235.723 27.1742 235.563 27.3342C234.963 27.9342 234.383 28.5942 233.823 29.3142C233.263 30.0342 232.983 30.7942 232.983 31.5942C233.703 31.5942 234.463 31.4142 235.263 31.0542C236.063 30.6942 236.763 30.3942 237.363 30.1542C239.283 29.2742 241.183 28.2742 243.063 27.1542C244.103 26.5142 245.043 25.8742 245.883 25.2342C246.243 24.9942 246.603 24.9942 246.963 25.2342C247.363 25.4742 247.523 25.8342 247.443 26.3142C247.363 26.6742 247.183 27.0342 246.903 27.3942C246.663 27.7142 246.443 28.0542 246.243 28.4142C246.043 28.7342 245.843 29.1742 245.643 29.7342C245.483 30.2942 245.483 30.7942 245.643 31.2342C246.083 31.4742 246.623 31.5142 247.263 31.3542C247.903 31.1542 248.423 30.9942 248.823 30.8742C250.543 30.2742 252.143 29.5942 253.623 28.8342C253.903 28.7142 254.243 28.5542 254.643 28.3542C255.083 28.1142 255.403 28.1942 255.603 28.5942C255.803 28.9542 255.763 29.2342 255.483 29.4342C255.243 29.5942 254.983 29.7342 254.703 29.8542L250.743 31.7142C249.903 32.0742 248.983 32.4942 247.983 32.9742C246.983 33.4142 245.983 33.5142 244.983 33.2742C244.263 33.0742 243.843 32.6742 243.723 32.0742C243.643 31.4342 243.703 30.8342 243.903 30.2742L244.803 28.1142C243.763 28.5942 242.743 29.0942 241.743 29.6142C240.783 30.1342 239.783 30.6142 238.743 31.0542C238.303 31.2942 237.783 31.5942 237.183 31.9542C236.583 32.2742 235.943 32.5942 235.263 32.9142C234.623 33.1942 233.983 33.3942 233.343 33.5142C232.703 33.6742 232.143 33.6542 231.663 33.4542C231.183 33.2942 230.923 32.9942 230.883 32.5542C230.883 32.0742 231.003 31.5342 231.243 30.9342C231.483 30.3342 231.823 29.6942 232.263 29.0142C232.703 28.3342 233.163 27.6742 233.643 27.0342L232.203 27.6942C230.563 28.2942 229.383 28.7542 228.663 29.0742C227.943 29.3942 227.383 29.5942 226.983 29.6742C226.743 29.7542 226.563 29.7342 226.443 29.6142C226.283 29.4942 226.183 29.3542 226.143 29.1942C226.063 29.0342 226.063 28.8742 226.143 28.7142C226.183 28.5542 226.303 28.4342 226.503 28.3542ZM253.367 28.4142C254.167 28.0142 254.987 27.5742 255.827 27.0942C256.707 26.5742 257.587 26.0942 258.467 25.6542C259.387 25.2142 260.287 24.8342 261.167 24.5142C262.087 24.1942 263.007 23.9942 263.927 23.9142C264.247 23.9142 264.527 23.9542 264.767 24.0342C265.007 24.1142 265.207 24.2942 265.367 24.5742C265.407 24.7342 265.407 24.8942 265.367 25.0542C265.327 25.2142 265.267 25.3542 265.187 25.4742C265.147 25.5942 265.107 25.7142 265.067 25.8342C265.027 25.9142 265.047 25.9742 265.127 26.0142C265.407 26.1742 265.687 26.2542 265.967 26.2542C266.287 26.2542 266.567 26.2342 266.807 26.1942C268.087 26.0342 269.327 25.6542 270.527 25.0542C271.727 24.4142 272.847 23.7142 273.887 22.9542C274.287 22.7942 274.607 22.7742 274.847 22.8942C275.087 23.0142 275.227 23.2142 275.267 23.4942C275.347 23.7342 275.327 24.0142 275.207 24.3342C275.087 24.6542 274.887 24.9142 274.607 25.1142C273.967 25.5142 273.307 25.8942 272.627 26.2542C271.987 26.5742 271.347 26.9142 270.707 27.2742C269.227 28.0742 267.727 28.8542 266.207 29.6142C264.687 30.3742 263.187 31.2142 261.707 32.1342C262.547 32.0142 263.387 31.9542 264.227 31.9542C264.867 31.9542 265.507 31.9942 266.147 32.0742C266.827 32.1142 267.507 32.2342 268.187 32.4342C268.387 32.5142 268.687 32.6342 269.087 32.7942C269.487 32.9542 269.767 33.0342 269.927 33.0342C270.167 33.1142 270.427 33.1142 270.707 33.0342C271.027 32.9542 271.307 32.8742 271.547 32.7942C273.427 32.1942 275.187 31.3942 276.827 30.3942C276.987 30.3142 277.267 30.1142 277.667 29.7942C278.107 29.4342 278.567 29.1142 279.047 28.8342C279.527 28.5142 279.967 28.2742 280.367 28.1142C280.767 27.9542 281.067 27.9942 281.267 28.2342C281.427 28.4342 281.447 28.6342 281.327 28.8342C281.247 29.0342 281.107 29.2342 280.907 29.4342C280.707 29.5942 280.487 29.7542 280.247 29.9142C280.007 30.0342 279.827 30.1342 279.707 30.2142C278.627 30.8942 277.547 31.5942 276.467 32.3142C275.387 32.9942 274.287 33.6142 273.167 34.1742C272.447 34.5742 271.827 34.8342 271.307 34.9542C270.787 35.0742 270.287 35.0942 269.807 35.0142C269.327 34.9742 268.827 34.8342 268.307 34.5942C267.827 34.3942 267.247 34.1542 266.567 33.8742C265.767 33.5542 264.947 33.3742 264.107 33.3342C263.267 33.2942 262.447 33.3742 261.647 33.5742C261.207 33.6942 260.787 33.8142 260.387 33.9342C259.987 34.0942 259.607 34.2342 259.247 34.3542C258.807 34.5542 258.367 34.8142 257.927 35.1342C257.487 35.4542 257.047 35.6542 256.607 35.7342C256.167 35.8542 255.827 35.7142 255.587 35.3142C255.387 34.9542 255.327 34.5942 255.407 34.2342C255.647 33.7542 256.047 33.3742 256.607 33.0942C257.167 32.8142 257.667 32.5742 258.107 32.3742C259.547 31.6142 260.987 30.8542 262.427 30.0942C263.867 29.2942 265.287 28.4942 266.687 27.6942C265.967 27.6942 265.267 27.5742 264.587 27.3342C263.907 27.0942 263.467 26.6542 263.267 26.0142C262.347 26.0542 261.367 26.2942 260.327 26.7342C259.287 27.1342 258.367 27.4942 257.567 27.8142C256.967 28.1342 256.367 28.4342 255.767 28.7142C255.207 28.9942 254.647 29.2942 254.087 29.6142C253.847 29.7342 253.647 29.7742 253.487 29.7342C253.287 29.6542 253.147 29.5342 253.067 29.3742C252.947 29.2142 252.907 29.0542 252.947 28.8942C252.987 28.6942 253.127 28.5342 253.367 28.4142Z" fill="#178C94"/>
</svg>
