<svg width="20" height="21" viewBox="0 0 20 21" fill="none" xmlns="http://www.w3.org/2000/svg">
<g clip-path="url(#clip0_306_5707)">
<path d="M2.5 5.92464L5 2.59131H15L17.5 5.92464M2.5 5.92464V17.5913C2.5 18.0333 2.67559 18.4573 2.98816 18.7698C3.30072 19.0824 3.72464 19.258 4.16667 19.258H15.8333C16.2754 19.258 16.6993 19.0824 17.0118 18.7698C17.3244 18.4573 17.5 18.0333 17.5 17.5913V5.92464M2.5 5.92464H17.5M13.3333 9.25798C13.3333 10.142 12.9821 10.9899 12.357 11.615C11.7319 12.2401 10.8841 12.5913 10 12.5913C9.11594 12.5913 8.2681 12.2401 7.64298 11.615C7.01786 10.9899 6.66667 10.142 6.66667 9.25798" stroke="#414651" stroke-width="1.67" stroke-linecap="round" stroke-linejoin="round"/>
</g>
<defs>
<clipPath id="clip0_306_5707">
<rect width="20" height="20" fill="white" transform="translate(0 0.924805)"/>
</clipPath>
</defs>
</svg>
