<svg width="24" height="24" viewBox="0 0 24 24" fill="none" xmlns="http://www.w3.org/2000/svg">
<path fill-rule="evenodd" clip-rule="evenodd" d="M12 24C18.6274 24 24 18.6274 24 12C24 5.37258 18.6274 0 12 0C5.37258 0 0 5.37258 0 12C0 14.1522 0.566569 16.172 1.55869 17.9185L0 24L6.26988 22.5461C7.97261 23.4732 9.92479 24 12 24ZM12 22.1538C17.6078 22.1538 22.1538 17.6078 22.1538 12C22.1538 6.39219 17.6078 1.84615 12 1.84615C6.39219 1.84615 1.84615 6.39219 1.84615 12C1.84615 14.1652 2.52386 16.1721 3.67872 17.8202L2.76923 21.2308L6.23994 20.3631C7.8766 21.4925 9.86106 22.1538 12 22.1538Z" fill="#A4A7AE"/>
<path d="M9.37502 7.12504C9.12537 6.6236 8.7424 6.668 8.35551 6.668C7.66407 6.668 6.58594 7.49621 6.58594 9.03759C6.58594 10.3008 7.14259 11.6836 9.01831 13.7522C10.8285 15.7485 13.207 16.7812 15.1816 16.7461C17.1563 16.7109 17.5625 15.0117 17.5625 14.4379C17.5625 14.1835 17.4047 14.0566 17.2959 14.0221C16.6231 13.6992 15.382 13.0975 15.0996 12.9844C14.8172 12.8714 14.6698 13.0243 14.5781 13.1075C14.3221 13.3515 13.8144 14.0707 13.6406 14.2325C13.4668 14.3942 13.2077 14.3124 13.0999 14.2512C12.7031 14.092 11.6272 13.6134 10.7696 12.7821C9.70899 11.754 9.64675 11.4002 9.44693 11.0854C9.28707 10.8335 9.40437 10.6789 9.46291 10.6114C9.69142 10.3477 10.007 9.94061 10.1485 9.73832C10.29 9.53602 10.1776 9.22889 10.1102 9.03759C9.82033 8.21488 9.57473 7.52618 9.37502 7.12504Z" fill="#A4A7AE"/>
</svg>
